<?xml version="1.0" encoding="utf-8"?>
<!-- Generator: Adobe Illustrator 19.2.0, SVG Export Plug-In . SVG Version: 6.00 Build 0)  -->
<svg version="1.1" id="Layer_1" xmlns="http://www.w3.org/2000/svg" xmlns:xlink="http://www.w3.org/1999/xlink" x="0px" y="0px"
	 width="269.824px" height="173px" viewBox="0 0 169.824 73" style="enable-background:new 0 0 169.824 73;" xml:space="preserve">
<style type="text/css">
	.st0{fill:#b9e3fd;}
</style>
<g>
	<circle class="st0" cx="130.324" cy="47.991" r="11.333"/>
	<path class="st0" d="M96.991,11.667c-1.028,0-2.043,0.053-3.045,0.151C88.374,4.631,79.663,0,69.866,0
		C57.387,0,46.667,7.508,41.96,18.25c-2.899-2.238-6.523-3.583-10.47-3.583c-9.481,0-17.167,7.686-17.167,17.167
		c0,0.896,0.09,1.769,0.222,2.628c-0.563-0.076-1.133-0.128-1.717-0.128C5.744,34.333,0,40.077,0,47.162
		c0,7.085,5.744,12.829,12.829,12.829c2.539,0,4.899-0.747,6.891-2.02C23.335,66.788,32,73,42.119,73
		c9.23,0,17.251-5.167,21.334-12.766c2.068,0.443,4.212,0.682,6.413,0.682c0.89,0,1.769-0.046,2.64-0.121
		C78.103,68.208,86.986,73,96.991,73c6.528,0,12.574-2.046,17.546-5.522c1.388,1.158,3.172,1.855,5.12,1.855c4.418,0,8-3.582,8-8
		c0-2.451-1.105-4.642-2.841-6.109c1.819-3.92,2.841-8.285,2.841-12.891C127.657,25.397,113.927,11.667,96.991,11.667z"/>
</g>
</svg>
