<?xml version="1.0" encoding="utf-8"?>
<!-- Generator: Adobe Illustrator 19.2.0, SVG Export Plug-In . SVG Version: 6.00 Build 0)  -->
<svg version="1.1" id="Layer_1" xmlns="http://www.w3.org/2000/svg" xmlns:xlink="http://www.w3.org/1999/xlink" x="0px" y="0px"
	 width="208.524px" height="104.289px" viewBox="0 0 208.524 104.289" style="enable-background:new 0 0 208.524 104.289;"
	 xml:space="preserve">
<style type="text/css">
	.st0{fill:#eee;}
</style>
<path class="st0" d="M190.259,67.732c-0.093,0-0.184,0.013-0.277,0.014c0.179-1.248,0.277-2.522,0.277-3.819
	c0-14.711-11.925-26.636-26.636-26.636c-3.261,0-6.383,0.588-9.27,1.66C148.508,16.541,128.135,0,103.895,0
	C80.141,0,60.11,15.89,53.817,37.616c-5.299-3.104-11.463-4.891-18.048-4.891C16.014,32.724,0,48.739,0,68.493
	c0,19.755,16.014,35.769,35.769,35.769h67.038c0.363,0.007,0.723,0.028,1.088,0.028s0.725-0.02,1.088-0.028h85.275
	c10.087,0,18.265-8.177,18.265-18.265S200.346,67.732,190.259,67.732z"/>
</svg>
