<?xml version="1.0" encoding="utf-8"?>
<!-- Generator: Adobe Illustrator 19.2.0, SVG Export Plug-In . SVG Version: 6.00 Build 0)  -->
<svg version="1.1" id="Layer_1" xmlns="http://www.w3.org/2000/svg" xmlns:xlink="http://www.w3.org/1999/xlink" x="0px" y="0px"
	 width="249.869px" height="145.236px" viewBox="0 0 189.869 85.236" style="enable-background:new 0 0 189.869 85.236;"
	 xml:space="preserve">
<style type="text/css">
	.st0{fill:#eee;}
</style>
<path class="st0" d="M173.028,41.725c0.06-0.71,0.098-1.426,0.098-2.151c0-13.87-11.244-25.114-25.114-25.114
	c-5.875,0-11.274,2.023-15.551,5.402C124.995,7.936,111.749,0,96.642,0C75.741,0,58.397,15.186,55.013,35.124
	c-2.009-0.567-4.126-0.877-6.316-0.877c-11.769,0-21.486,8.761-23,20.116c-2.592-1.646-5.657-2.612-8.954-2.612
	C7.496,51.75,0,59.246,0,68.493c0,9.247,7.496,16.743,16.743,16.743h151.056c12.189,0,22.07-9.881,22.07-22.07
	C189.869,52.779,182.692,44.074,173.028,41.725z"/>
</svg>
