<?xml version="1.0" encoding="utf-8"?>
<!-- Generator: Adobe Illustrator 19.2.0, SVG Export Plug-In . SVG Version: 6.00 Build 0)  -->
<svg version="1.1" id="Layer_1" xmlns="http://www.w3.org/2000/svg" xmlns:xlink="http://www.w3.org/1999/xlink" x="0px" y="0px"
	 width="528.862px" height="366.667px" viewBox="0 0 128.862 66.667" style="enable-background:new 0 0 128.862 66.667;"
	 xml:space="preserve">
<style type="text/css">
	.st0{fill:#9dd8fd;}
</style>
<path class="st0" d="M111.798,18.462c-3.517,0-6.785,1.066-9.5,2.89C99.082,12.774,90.81,6.667,81.109,6.667
	c-6.523,0-12.398,2.764-16.527,7.181C63.17,5.977,56.304,0,48.028,0c-9.297,0-16.833,7.537-16.833,16.833
	c0,0.24,0.026,0.473,0.036,0.71c-0.533-0.052-1.073-0.082-1.619-0.082c-8.344,0-15.217,6.23-16.263,14.288
	C5.848,32.533,0,38.873,0,46.581c0,8.237,6.677,14.915,14.915,14.915c5.32,0,9.976-2.794,12.616-6.985
	c4.452,7.289,12.481,12.156,21.648,12.156c10.813,0,20.039-6.773,23.682-16.305c0.296,0.116,0.595,0.226,0.897,0.33
	c2.893,8.138,10.64,13.975,19.77,13.975c8.418,0,15.658-4.965,19.007-12.115c9.079-0.389,16.326-7.851,16.326-17.026
	C128.862,26.101,121.222,18.462,111.798,18.462z"/>
</svg>
