<?xml version="1.0" encoding="utf-8"?>
<!-- Generator: Adobe Illustrator 19.2.0, SVG Export Plug-In . SVG Version: 6.00 Build 0)  -->
<svg version="1.1" id="Layer_1" xmlns="http://www.w3.org/2000/svg" xmlns:xlink="http://www.w3.org/1999/xlink" x="0px" y="0px"
	 width="174px" height="89.729px" viewBox="0 0 174 89.729" style="enable-background:new 0 0 174 89.729;" xml:space="preserve">
<style type="text/css">
	.st0{fill:#eee;}
</style>
<path class="st0" d="M165.973,43.176c1.447-6.985-1.624-14.407-8.139-18.169c-3.955-2.283-8.443-2.784-12.553-1.774
	c-4.217-8.401-12.906-14.171-22.947-14.171c-2.302,0-4.531,0.308-6.654,0.876C107.981,3.726,98.194,0,87.531,0
	C72.579,0,59.344,7.321,51.192,18.567c-1.049-0.111-2.113-0.171-3.192-0.171c-8.957,0-16.992,3.93-22.488,10.154
	c-1.407-0.522-2.923-0.821-4.512-0.821c-7.18,0-13,5.82-13,13c0,0.43,0.024,0.853,0.064,1.272C3.309,44.19,0,48.984,0,54.562
	c0,7.64,6.193,13.833,13.833,13.833c3.507,0,6.699-1.315,9.137-3.466C28.34,73.042,37.543,78.396,48,78.396
	c2.929,0,5.757-0.427,8.433-1.21c8.065,7.762,19.02,12.544,31.098,12.544c14.581,0,27.533-6.961,35.727-17.736
	c3.326,2.542,7.469,4.069,11.978,4.069c7.579,0,14.153-4.27,17.469-10.531c2.243,1.789,5.079,2.865,8.171,2.865
	c7.248,0,13.123-5.876,13.123-13.123C174,49.832,170.689,45.165,165.973,43.176z"/>
</svg>
