<?xml version="1.0" encoding="utf-8"?>
<!-- Generator: Adobe Illustrator 19.2.0, SVG Export Plug-In . SVG Version: 6.00 Build 0)  -->
<svg version="1.1" id="Layer_1" xmlns="http://www.w3.org/2000/svg" xmlns:xlink="http://www.w3.org/1999/xlink" x="0px" y="0px"
	 width="208.524px" height="100.457px" viewBox="0 0 208.524 100.457" style="enable-background:new 0 0 208.524 100.457;"
	 xml:space="preserve">
<style type="text/css">
	.st0{fill:#eee;}
</style>
<path class="st0" d="M182.268,47.945c-0.821,0-1.632,0.043-2.433,0.116c-4.409-9.93-14.35-16.859-25.915-16.859
	c-0.861,0-1.711,0.045-2.552,0.12C145.068,13.096,127.769,0,107.401,0C87.064,0,69.787,13.056,63.464,31.239
	c-0.478-0.02-0.957-0.036-1.439-0.036c-10.353,0-19.639,4.55-25.985,11.752c-1.911-3.379-5.53-5.664-9.689-5.664
	c-6.147,0-11.13,4.983-11.13,11.13c0,1.907,0.481,3.7,1.326,5.269C6.943,56.817,0,65.837,0,76.484
	c0,13.24,10.733,23.973,23.973,23.973h158.295c14.501,0,26.256-11.755,26.256-26.256S196.769,47.945,182.268,47.945z"/>
</svg>
