<?xml version="1.0" encoding="utf-8"?>
<!-- Generator: Adobe Illustrator 19.2.0, SVG Export Plug-In . SVG Version: 6.00 Build 0)  -->
<svg version="1.1" id="Layer_1" xmlns="http://www.w3.org/2000/svg" xmlns:xlink="http://www.w3.org/1999/xlink" x="0px" y="0px"
	 width="566.667px" height="382px" viewBox="0 0 266.667 82" style="enable-background:new 0 0 266.667 82;" xml:space="preserve">
<style type="text/css">
	.st0{fill:#afdefb;}
</style>
<g>

	<circle class="st0" cx="257.333" cy="51.667" r="9.333"/>
	<path class="st0" d="M228.667,35.333c-4.226,0-8.052,1.711-10.826,4.476c-3.485-9.61-12.694-16.476-23.507-16.476
		c-4.692,0-9.08,1.295-12.831,3.543C175.747,11.192,160.68,0,143,0c-12.181,0-23.116,5.318-30.626,13.752
		c-5.263-5.37-12.594-8.705-20.708-8.705c-12.777,0-23.617,8.267-27.481,19.742c-1.867-0.922-3.962-1.455-6.185-1.455
		c-5.941,0-11.006,3.707-13.039,8.93c-1.869-1.614-4.298-2.596-6.961-2.596c-5.891,0-10.667,4.776-10.667,10.667
		c0,0.61,0.063,1.204,0.161,1.786C26.401,41.726,25.228,41.5,24,41.5c-5.707,0-10.333,4.626-10.333,10.333
		c0,5.707,4.626,10.333,10.333,10.333c2.035,0,3.927-0.597,5.527-1.613c3.157,5.942,9.404,9.991,16.601,9.991
		c4.23,0,8.119-1.414,11.26-3.772c2.185,1.12,4.654,1.763,7.279,1.763c2.185,0,4.266-0.441,6.164-1.234
		c4.349,6.961,12.075,11.595,20.887,11.595c8.516,0,16.022-4.326,20.441-10.899C119.674,76.577,130.7,82,143,82
		c13.535,0,25.535-6.562,33.001-16.675c4.566,4.924,11.087,8.009,18.332,8.009c9.617,0,17.96-5.433,22.142-13.394
		c2.801,3.677,7.212,6.061,12.192,6.061C237.135,66,244,59.135,244,50.667C244,42.198,237.135,35.333,228.667,35.333z"/>
</g>
</svg>
