<?xml version="1.0" encoding="utf-8"?>
<!-- Generator: Adobe Illustrator 19.2.0, SVG Export Plug-In . SVG Version: 6.00 Build 0)  -->
<svg version="1.1" id="Layer_1" xmlns="http://www.w3.org/2000/svg" xmlns:xlink="http://www.w3.org/1999/xlink" x="0px" y="0px"
	 width="249.869px" height="159.306px" viewBox="0 0 189.869 99.306" style="enable-background:new 0 0 189.869 99.306;"
	 xml:space="preserve">
<style type="text/css">
	.st0{fill:#eee;}
</style>
<path class="st0" d="M167.494,54.407c-3.312-11.636-14.013-20.16-26.711-20.16c-3.142,0-6.159,0.529-8.975,1.491
	C129.7,15.654,112.718,0,92.076,0c-20.875,0-38.001,16.012-39.79,36.422c-3.067-1.393-6.47-2.175-10.058-2.175
	c-13.45,0-24.353,10.903-24.353,24.353c0,2.424,0.359,4.763,1.018,6.972c-0.646-0.075-1.299-0.123-1.965-0.123
	C7.579,65.449,0,73.028,0,82.378c0,9.349,7.579,16.928,16.928,16.928h150.49c12.399,0,22.451-10.051,22.451-22.451
	C189.869,64.482,179.858,54.448,167.494,54.407z"/>
</svg>
