<?xml version="1.0" encoding="utf-8"?>
<!-- Generator: Adobe Illustrator 19.2.0, SVG Export Plug-In . SVG Version: 6.00 Build 0)  -->
<svg version="1.1" id="Layer_1" xmlns="http://www.w3.org/2000/svg" xmlns:xlink="http://www.w3.org/1999/xlink" x="0px" y="0px"
	 width="208.524px" height="89.041px" viewBox="0 0 208.524 89.041" style="enable-background:new 0 0 208.524 89.041;"
	 xml:space="preserve">
<style type="text/css">
	.st0{fill:#eee;}
</style>
<path class="st0" d="M190.83,53.653c-1.807,0-3.55,0.274-5.192,0.778c-2.636-4.124-7.244-6.866-12.502-6.866
	c-1.649,0-3.229,0.28-4.711,0.776c-2.468-12.377-13.389-21.705-26.492-21.705c-2.005,0-3.956,0.225-5.836,0.639
	C131.315,11.492,116.66,0,99.315,0c-12.1,0-22.887,5.596-29.932,14.336c-2.409-0.902-5.016-1.399-7.74-1.399
	c-10.081,0-18.577,6.761-21.216,15.994c-3.024-0.991-6.251-1.535-9.606-1.535C13.799,27.397,0,41.197,0,58.219
	s13.799,30.822,30.822,30.822H190.83c9.772,0,17.694-7.922,17.694-17.694S200.602,53.653,190.83,53.653z"/>
</svg>
