<?xml version="1.0" encoding="utf-8"?>
<!-- Generator: Adobe Illustrator 19.2.0, SVG Export Plug-In . SVG Version: 6.00 Build 0)  -->
<svg version="1.1" id="Layer_1" xmlns="http://www.w3.org/2000/svg" xmlns:xlink="http://www.w3.org/1999/xlink" x="0px" y="0px"
	 width="210.807px" height="97.412px" viewBox="0 0 210.807 97.412" style="enable-background:new 0 0 210.807 97.412;"
	 xml:space="preserve">
<style type="text/css">
	.st0{fill:#eee;}
</style>
<g>
	<path class="st0" d="M151.256,52.131c-1.224,0-2.411,0.148-3.557,0.405c-2.481-9.642-11.233-16.767-21.65-16.767
		c-1.995,0-3.927,0.265-5.767,0.755c-4.587-9.026-13.954-15.215-24.772-15.215c-3.554,0-6.948,0.675-10.071,1.891
		C81.492,9.791,69.1,0,54.414,0C36.551,0,22.07,14.481,22.07,32.344c0,1.357,0.093,2.69,0.255,4.003
		c-1.423-0.364-2.905-0.578-4.441-0.578C8.007,35.769,0,43.776,0,53.653s8.007,17.884,17.884,17.884
		c1.861,0,3.656-0.285,5.343-0.813c-0.006,0.208-0.016,0.414-0.016,0.623c0,12.294,9.966,22.26,22.26,22.26
		c6.914,0,13.091-3.152,17.174-8.097c4.384,7.139,12.262,11.902,21.255,11.902c8.425,0,15.868-4.184,20.38-10.583
		c4.684,4.212,10.879,6.778,17.675,6.778c8.888,0,16.747-4.39,21.542-11.114c2.304,1.262,4.946,1.982,7.758,1.982
		c8.932,0,16.172-7.24,16.172-16.172C167.428,59.371,160.187,52.131,151.256,52.131z"/>
	<circle class="st0" cx="197.108" cy="62.785" r="13.699"/>
</g>
</svg>
