<?xml version="1.0" encoding="utf-8"?>
<!-- Generator: Adobe Illustrator 19.2.0, SVG Export Plug-In . SVG Version: 6.00 Build 0)  -->
<svg version="1.1" id="Layer_1" xmlns="http://www.w3.org/2000/svg" xmlns:xlink="http://www.w3.org/1999/xlink" x="0px" y="0px"
	 width="1068.5px" height="340.6px" viewBox="0 0 1068.5 340.6" style="enable-background:new 0 0 1068.5 340.6;"
	 xml:space="preserve">
<style type="text/css">
	.st0{fill:#8FD4FF;}
</style>
<path class="st0" d="M1005.4,162.7c-3.3,0-6.5,0.3-9.7,0.7c-3.5-11-13.9-19-26-19c-1.1,0-2.1,0.1-3.1,0.2
	c-8.6-27.4-34.3-47.3-64.5-47.3c-2.8,0-5.6,0.2-8.4,0.5c-0.1-33.9-27.6-61.3-61.6-61.3c-1.1,0-2.2,0-3.3,0.1C819,15,797.3,0,772,0
	c-25,0-46.6,14.7-56.5,36c-4.3-3.5-9.8-5.6-15.7-5.6c-13.9,0-25.1,11.2-25.1,25.1c0,2.6,0.4,5.1,1.1,7.5c-2-0.4-4-0.6-6.1-0.6
	c-16.6,0-30,13.4-30,30c0,4.1,0.8,8.1,2.4,11.7c-14.5-7.4-30.9-11.7-48.3-11.7c-36.4,0-68.5,18.3-87.6,46.2
	c-12.5-10.1-28.5-16.2-45.8-16.2c-26.4,0-49.5,14-62.3,35c-6.2-2.9-13.2-4.6-20.5-4.6c-14.6,0-27.6,6.4-36.5,16.6
	c-5.5-2.8-11.7-4.4-18.2-4.4c-12.3,0-23.2,5.5-30.6,14.2c-8-15.2-24-25.6-42.4-25.6c-12.4,0-23.7,4.8-32.2,12.5
	c-7-8.1-17.4-13.3-29-13.3c-21.2,0-38.4,17.2-38.4,38.4c0,1.4,0.1,2.8,0.2,4.2c-6.8-2.7-14.3-4.2-22.1-4.2
	c-14.2,0-27.3,4.9-37.6,13.2c-5.6-5.6-13.4-9-21.9-9c-12.4,0-23,7.2-28,17.6C18,214.6,0,233.5,0,256.7c0,24.2,19.6,43.8,43.8,43.8
	c13.7,0,26-6.3,34-16.2c10.7,16.5,29.4,27.5,50.5,27.5c22.4,0,41.9-12.2,52.3-30.3c9.9,15.1,27,25,46.4,25
	c25.2,0,46.4-16.7,53.2-39.7c8.8,8.1,20.6,13.1,33.5,13.1c9.5,0,18.3-2.7,25.9-7.3c10.2,10.2,24.3,16.4,39.9,16.4
	c20.8,0,39-11.2,48.8-28c9.7,4.8,20.6,7.4,32.1,7.4c16.2,0,31.1-5.3,43.2-14.2c18.7,30.2,52.1,50.3,90.2,50.3
	c23.7,0,45.6-7.8,63.3-21c-0.4,2.5-0.6,5.1-0.6,7.7c0,27.3,22.1,49.4,49.4,49.4c21.3,0,39.4-13.5,46.4-32.3
	c12,13.3,29.3,21.7,48.6,21.7c26.7,0,49.7-16.1,59.8-39.1c4.1,2,8.6,3.1,13.4,3.1c14.1,0,25.9-9.5,29.5-22.4
	c4.4,13.6,17.1,23.4,32.2,23.4c13.6,0,25.2-8,30.6-19.5c10.7,8.4,24.2,13.5,38.9,13.5c34.8,0,63.1-28.3,63.1-63.1
	C1068.5,190.9,1040.3,162.7,1005.4,162.7z"/>
</svg>
