<?xml version="1.0" encoding="utf-8"?>
<!-- Generator: Adobe Illustrator 19.2.0, SVG Export Plug-In . SVG Version: 6.00 Build 0)  -->
<svg version="1.1" id="Layer_1" xmlns="http://www.w3.org/2000/svg" xmlns:xlink="http://www.w3.org/1999/xlink" x="0px" y="0px"
	 width="172.755px" height="101.218px" viewBox="0 0 172.755 101.218" style="enable-background:new 0 0 172.755 101.218;"
	 xml:space="preserve">
<style type="text/css">
	.st0{fill:#eee;}
</style>
<path class="st0" d="M148.891,49.186c0.669-2.457,1.032-5.041,1.032-7.71c0-16.182-13.118-29.3-29.3-29.3
	c-2.642,0-5.199,0.355-7.634,1.011C104.222,5.011,92.463,0,79.528,0C56.757,0,37.613,15.508,32.067,36.537
	C14.332,36.686,0,51.103,0,68.874c0,17.863,14.481,32.344,32.344,32.344H146.69c14.396,0,26.065-11.67,26.065-26.065
	C172.755,61.499,162.255,50.305,148.891,49.186z"/>
</svg>
