<?xml version="1.0" encoding="utf-8"?>
<!-- Generator: Adobe Illustrator 19.2.0, SVG Export Plug-In . SVG Version: 6.00 Build 0)  -->
<svg version="1.1" id="Layer_1" xmlns="http://www.w3.org/2000/svg" xmlns:xlink="http://www.w3.org/1999/xlink" x="0px" y="0px"
	 width="222.983px" height="105.784px" viewBox="0 0 222.983 105.784" style="enable-background:new 0 0 222.983 105.784;"
	 xml:space="preserve">
<style type="text/css">
	.st0{fill:#eee;}
</style>
<g>
	<path class="st0" d="M194.825,24.353c-0.084,0-0.166,0.006-0.25,0.006C188.387,10.031,174.134,0,157.534,0
		c-18.315,0-33.769,12.211-38.689,28.932c-0.168-0.003-0.335-0.013-0.504-0.013c-11.198,0-21.066,5.692-26.871,14.34
		c-3.044-1.844-6.601-2.924-10.42-2.924c-11.138,0-20.167,9.029-20.167,20.167c0,11.138,9.029,20.167,20.167,20.167
		c3.524,0,6.835-0.909,9.717-2.497c5.202,8.465,14.193,14.348,24.611,15.294c4.376,7.373,12.413,12.317,21.608,12.317
		c10.905,0,20.183-6.952,23.653-16.664c3.096,1.87,6.713,2.966,10.594,2.966c8.241,0,15.329-4.863,18.603-11.865
		c1.62,0.29,3.285,0.45,4.989,0.45c15.551,0,28.158-12.607,28.158-28.158S210.376,24.353,194.825,24.353z"/>
	<circle class="st0" cx="39.574" cy="52.892" r="13.699"/>
	<circle class="st0" cx="9.513" cy="52.892" r="9.513"/>
</g>
</svg>
