<?xml version="1.0" encoding="utf-8"?>
<!-- Generator: Adobe Illustrator 19.2.0, SVG Export Plug-In . SVG Version: 6.00 Build 0)  -->
<svg version="1.1" id="Layer_1" xmlns="http://www.w3.org/2000/svg" xmlns:xlink="http://www.w3.org/1999/xlink" x="0px" y="0px"
	 width="173.516px" height="79.304px" viewBox="0 0 173.516 79.304" style="enable-background:new 0 0 173.516 79.304;"
	 xml:space="preserve">
<style type="text/css">
	.st0{fill:#eee;}
</style>
<path class="st0" d="M155.824,43.919c-1.805,0-3.546,0.274-5.187,0.776c0.031-0.562,0.049-1.128,0.049-1.697
	c0-17.022-13.799-30.822-30.822-30.822c-2.738,0-5.392,0.362-7.919,1.032C105.421,5.154,95.457,0,84.285,0
	C69.827,0,57.392,8.629,51.826,21.013c-3.149-2.205-6.975-3.509-11.111-3.509c-10.283,0-18.676,8.004-19.341,18.119
	c-9.778,0.466-17.569,8.517-17.569,18.41c0,3.671,1.085,7.084,2.933,9.958C2.941,64.461,0,67.692,0,71.616
	c0,4.246,3.442,7.689,7.689,7.689h148.135c9.771,0,17.692-7.921,17.692-17.692C173.516,51.841,165.595,43.919,155.824,43.919z"/>
</svg>
