<?xml version="1.0" encoding="utf-8"?>
<!-- Generator: Adobe Illustrator 19.2.0, SVG Export Plug-In . SVG Version: 6.00 Build 0)  -->
<svg version="1.1" id="Layer_1" xmlns="http://www.w3.org/2000/svg" xmlns:xlink="http://www.w3.org/1999/xlink" x="0px" y="0px"
	 width="183.409px" height="105.784px" viewBox="0 0 183.409 105.784" style="enable-background:new 0 0 183.409 105.784;"
	 xml:space="preserve">
<style type="text/css">
	.st0{fill:#eee;}
</style>
<g>
	<path class="st0" d="M144.977,51.75c-2.784,0-5.32,1.039-7.261,2.74c-0.075-0.13-0.156-0.256-0.233-0.384
		c1.601-2.285,2.548-5.062,2.548-8.063c0-7.776-6.303-14.079-14.079-14.079c-2.956,0-5.696,0.915-7.961,2.471
		C114.328,14.837,97.144,0,76.484,0C60.532,0,46.65,8.846,39.464,21.896c-2.075-0.867-4.35-1.349-6.74-1.349
		c-9.667,0-17.504,7.837-17.504,17.504c0,3.429,1.001,6.618,2.705,9.318C7.819,48.66,0,57.274,0,67.732
		C0,79.08,9.2,88.28,20.548,88.28c6.79,0,12.793-3.308,16.534-8.385c7.265,15.304,22.857,25.888,40.924,25.888
		c17.927,0,33.418-10.419,40.755-25.531c1.214,0.266,2.471,0.417,3.765,0.417c6.715,0,12.54-3.786,15.476-9.336
		c1.901,1.553,4.328,2.487,6.975,2.487c6.094,0,11.035-4.941,11.035-11.035C156.012,56.691,151.072,51.75,144.977,51.75z"/>
	<circle class="st0" cx="173.516" cy="65.449" r="9.893"/>
</g>
</svg>
