<?xml version="1.0" encoding="UTF-8"?>
<!-- Created with Inkscape (http://www.inkscape.org/) -->
<svg width="98mm" height="99.768mm" version="1.1" viewBox="0 0 97.999985 99.768417" xmlns="http://www.w3.org/2000/svg" xmlns:cc="http://creativecommons.org/ns#" xmlns:dc="http://purl.org/dc/elements/1.1/" xmlns:rdf="http://www.w3.org/1999/02/22-rdf-syntax-ns#">

 <g transform="translate(-56.077 -90.634)">
  <g transform="matrix(.26458 0 0 .26458 56.077 90.633)">
   <g id="big_gear">
    <path class="st1" d="m256.31 95.763c-0.423-1.595-2.118-2.899-3.769-2.898l-23.117 0.013c-1.65 1e-3 -3.549-1.232-4.22-2.739l-4.967-10.029c-0.795-1.446-0.65-3.72 0.322-5.053l13.732-18.837c0.973-1.333 0.934-3.486-0.085-4.784l-7.79-9.246c-1.105-1.225-3.206-1.598-4.666-0.831l-20.386 10.713c-1.46 0.768-3.705 0.547-4.989-0.49l-9.594-7.077c-1.368-0.921-2.291-3.011-2.05-4.643l3.413-23.111c0.241-1.632-0.79-3.527-2.292-4.21l-10.762-4.45c-1.545-0.58-3.575 0.058-4.512 1.416l-13.046 18.922c-0.937 1.358-3.026 2.202-4.644 1.875l-12.758-1.959c-1.641-0.177-3.429-1.597-3.974-3.154l-7.71-22.028c-0.545-1.557-2.339-2.752-3.986-2.656l-11.112 1.008c-1.637 0.204-3.139 1.712-3.337 3.35l-2.753 22.776c-0.198 1.638-1.656 3.356-3.24 3.817l-13.161 4.524c-1.531 0.614-3.772 0.195-4.978-0.931l-17.005-15.869c-1.206-1.125-3.346-1.344-4.755-0.486l-8.963 5.861c-1.352 0.947-1.978 2.983-1.392 4.526l8.16 21.481c0.586 1.542 0.097 3.746-1.086 4.896l-10 10.742c-1.063 1.262-3.234 1.938-4.826 1.502l-22.361-6.127c-1.591-0.436-3.582 0.369-4.422 1.789l-5.019 9.123c-0.749 1.47-0.352 3.567 0.884 4.661l17.247 15.262c1.236 1.094 1.835 3.274 1.333 4.846l-3.821 14.583c-0.338 1.615-1.933 3.226-3.544 3.579l-22.53 4.94c-1.611 0.354-3.005 1.991-3.096 3.638 0 0-0.186 3.365-0.186 6.588 0 2.268 0.058 3.764 0.058 3.764 0.063 1.648 1.427 3.32 3.029 3.714l22.445 5.52c1.602 0.394 3.162 2.043 3.465 3.665l3.483 14.555c0.468 1.582-0.182 3.745-1.445 4.807l-17.606 14.805c-1.263 1.062-1.71 3.147-0.994 4.633l4.86 9.321c0.809 1.438 2.782 2.291 4.384 1.896l22.555-5.572c1.602-0.396 3.76 0.332 4.795 1.617l9.564 10.738c1.157 1.177 1.592 3.389 0.968 4.916l-8.694 21.254c-0.625 1.527-0.048 3.577 1.28 4.555l8.973 6.169c1.389 0.89 3.536 0.723 4.771-0.372l17.423-15.453c1.234-1.095 3.486-1.46 5.003-0.813l12.662 4.693c1.572 0.5 2.987 2.253 3.144 3.896l2.178 22.847c0.157 1.643 1.62 3.188 3.251 3.433l11.296 1.305c1.645 0.137 3.468-1.015 4.052-2.558l8.27-21.843c0.584-1.543 2.408-2.917 4.052-3.055l12.367-1.575c1.625-0.284 3.693 0.614 4.595 1.996l12.576 19.264c0.902 1.381 2.917 2.072 4.477 1.535l11.063-4.231c1.52-0.644 2.6-2.51 2.399-4.147l-2.828-23.182c-0.2-1.638 0.776-3.702 2.169-4.586l9.492-6.605c1.313-1 3.565-1.16 5.006-0.356l20.135 11.238c1.44 0.804 3.552 0.486 4.692-0.707l8.139-9.131c1.054-1.269 1.149-3.418 0.212-4.775l-13.24-19.158c-0.938-1.357-1.021-3.632-0.187-5.055l5.157-9.699c0.714-1.487 2.648-2.669 4.298-2.627l23.163 0.598c1.649 0.042 3.382-1.218 3.849-2.8l3.08-12.008c0.354-1.612-0.552-3.557-2.014-4.323l-20.579-10.787c-1.462-0.766-2.56-2.739-2.439-4.385 0 0 0.261-3.583 0.261-6.931 0-2.319-0.081-3.903-0.081-3.903-0.085-1.648 1.057-3.592 2.537-4.321l20.885-10.284c1.48-0.729 2.438-2.651 2.131-4.272zm-125.51 112.1c-42.681 0-77.279-34.599-77.279-77.279s34.599-77.279 77.279-77.279 77.279 34.599 77.279 77.279-34.599 77.279-77.279 77.279z" fill="#618685"/>
    <path class="st0" d="m256.31 95.763c-0.423-1.595-2.118-2.899-3.769-2.898l-23.117 0.013c-1.65 1e-3 -3.549-1.232-4.22-2.739l-4.967-10.029c-0.795-1.446-0.65-3.72 0.322-5.053l13.732-18.837c0.973-1.333 0.934-3.486-0.085-4.784l-7.79-9.246c-1.105-1.225-3.206-1.598-4.666-0.831l-20.386 10.713c-1.46 0.768-3.705 0.547-4.989-0.49l-9.594-7.077c-1.368-0.921-2.291-3.011-2.05-4.643l3.413-23.111c0.241-1.632-0.79-3.527-2.292-4.21l-10.762-4.45c-1.545-0.58-3.575 0.058-4.512 1.416l-13.046 18.922c-0.937 1.358-3.026 2.202-4.644 1.875l-12.758-1.959c-1.641-0.177-3.429-1.597-3.974-3.154l-7.71-22.028c-0.545-1.557-2.339-2.752-3.986-2.656l-11.112 1.008c-1.637 0.204-3.139 1.712-3.337 3.35l-2.753 22.776c-0.198 1.638-1.656 3.356-3.24 3.817l-13.161 4.524c-1.531 0.614-3.772 0.195-4.978-0.931l-17.005-15.869c-1.206-1.125-3.346-1.344-4.755-0.486l-8.963 5.861c-1.352 0.947-1.978 2.983-1.392 4.526l8.16 21.481c0.586 1.542 0.097 3.746-1.086 4.896l-10 10.742c-1.063 1.262-3.234 1.938-4.826 1.502l-22.361-6.127c-1.591-0.436-3.582 0.369-4.422 1.789l-5.019 9.123c-0.749 1.47-0.352 3.567 0.884 4.661l17.247 15.262c1.236 1.094 1.835 3.274 1.333 4.846l-3.821 14.583c-0.338 1.615-1.933 3.226-3.544 3.579l-22.53 4.94c-1.611 0.354-3.005 1.991-3.096 3.638 0 0-0.186 3.365-0.186 6.588 0 2.268 0.058 3.764 0.058 3.764 0.063 1.648 1.427 3.32 3.029 3.714l22.445 5.52c1.602 0.394 3.162 2.043 3.465 3.665l3.483 14.555c0.468 1.582-0.182 3.745-1.445 4.807l-17.606 14.805c-1.263 1.062-1.71 3.147-0.994 4.633l4.86 9.321c0.809 1.438 2.782 2.291 4.384 1.896l22.555-5.572c1.602-0.396 3.76 0.332 4.795 1.617l9.564 10.738c1.157 1.177 1.592 3.389 0.968 4.916l-8.694 21.254c-0.625 1.527-0.048 3.577 1.28 4.555l8.973 6.169c1.389 0.89 3.536 0.723 4.771-0.372l17.423-15.453c1.234-1.095 3.486-1.46 5.003-0.813l12.662 4.693c1.572 0.5 2.987 2.253 3.144 3.896l2.178 22.847c0.157 1.643 1.62 3.188 3.251 3.433l11.296 1.305c1.645 0.137 3.468-1.015 4.052-2.558l8.27-21.843c0.584-1.543 2.408-2.917 4.052-3.055l12.367-1.575c1.625-0.284 3.693 0.614 4.595 1.996l12.576 19.264c0.902 1.381 2.917 2.072 4.477 1.535l11.063-4.231c1.52-0.644 2.6-2.51 2.399-4.147l-2.828-23.182c-0.2-1.638 0.776-3.702 2.169-4.586l9.492-6.605c1.313-1 3.565-1.16 5.006-0.356l20.135 11.238c1.44 0.804 3.552 0.486 4.692-0.707l8.139-9.131c1.054-1.269 1.149-3.418 0.212-4.775l-13.24-19.158c-0.938-1.357-1.021-3.632-0.187-5.055l5.157-9.699c0.714-1.487 2.648-2.669 4.298-2.627l23.163 0.598c1.649 0.042 3.382-1.218 3.849-2.8l3.08-12.008c0.354-1.612-0.552-3.557-2.014-4.323l-20.579-10.787c-1.462-0.766-2.56-2.739-2.439-4.385 0 0 0.261-3.583 0.261-6.931 0-2.319-0.081-3.903-0.081-3.903-0.085-1.648 1.057-3.592 2.537-4.321l20.885-10.284c1.48-0.729 2.438-2.651 2.131-4.272zm-125.51 112.1c-42.681 0-77.279-34.599-77.279-77.279s34.599-77.279 77.279-77.279 77.279 34.599 77.279 77.279-34.599 77.279-77.279 77.279z" fill="none" stroke="#fff" stroke-miterlimit="10"/>
   </g>
   <g id="medium_gear">
    <path class="st1" d="m345.44 245c-1.65-9e-3 -3.608-1.221-4.353-2.693l-5.813-9.77c-0.941-1.355-1.074-3.653-0.294-5.107l9.355-17.443c0.78-1.454 0.43-3.563-0.778-4.687l-2.873-2.524c-1.27-1.054-3.405-1.128-4.745-0.165l-16.068 11.548c-1.34 0.963-3.635 1.13-5.101 0.371l-10.458-4.477c-1.557-0.545-3.014-2.329-3.237-3.963l-2.683-19.602c-0.224-1.635-0.995-3.058-1.716-3.162l-0.659-0.083c-2.62-0.332-4.82-0.457-4.82-0.457-1.647-0.094-3.419 1.111-3.937 2.678l-6.206 18.771c-0.518 1.566-2.275 3.055-3.906 3.307l-11.109 2.504c-1.578 0.479-3.805-0.103-4.946-1.293l-13.687-14.276c-1.142-1.191-3.255-1.508-4.696-0.704l-3.286 1.957c-1.394 0.884-2.123 2.894-1.621 4.465l6.015 18.842c0.502 1.572-0.048 3.807-1.221 4.967l-7.509 8.556c-1 1.313-3.147 2.147-4.771 1.854l-19.477-3.507c-1.623-0.292-3.521 0.693-4.216 2.189l-1.505 3.511c-0.608 1.534-0.018 3.588 1.313 4.564l15.953 11.718c1.33 0.977 2.142 3.097 1.805 4.712 0 0-0.282 1.351-0.562 3.563-0.459 3.641-0.429 7.79-0.429 7.79 0.013 1.65-1.193 3.587-2.679 4.305l-17.832 8.617c-1.485 0.718-2.441 2.63-2.123 4.248l0.84 3.725c0.41 1.599 2.096 2.913 3.746 2.922l19.805 0.102c1.65 9e-3 3.608 1.221 4.353 2.693l5.814 9.77c0.94 1.355 1.073 3.653 0.293 5.107l-9.355 17.444c-0.78 1.454-0.43 3.563 0.778 4.688l2.873 2.522c1.27 1.054 3.405 1.128 4.745 0.165l16.068-11.548c1.34-0.963 3.635-1.13 5.101-0.371l10.459 4.479c1.557 0.545 3.014 2.329 3.237 3.964l2.683 19.601c0.224 1.635 0.995 3.059 1.716 3.163l0.659 0.083c2.62 0.33 4.82 0.455 4.82 0.455 1.647 0.094 3.419-1.111 3.937-2.678l6.207-18.768c0.518-1.566 2.275-3.056 3.906-3.309l11.108-2.505c1.578-0.479 3.805 0.103 4.946 1.294l13.687 14.275c1.142 1.191 3.255 1.508 4.696 0.704l3.287-1.957c1.394-0.884 2.123-2.894 1.621-4.466l-6.015-18.842c-0.502-1.572 0.048-3.808 1.221-4.968l7.508-8.557c1-1.312 3.146-2.146 4.771-1.854l19.476 3.507c1.623 0.293 3.521-0.692 4.215-2.188l1.506-3.511c0.607-1.534 0.017-3.588-1.313-4.565l-15.952-11.717c-1.33-0.978-2.142-3.098-1.804-4.713 0 0 0.282-1.351 0.561-3.563 0.46-3.642 0.429-7.79 0.429-7.79-0.013-1.65 1.193-3.587 2.679-4.306l17.831-8.615c1.485-0.719 2.441-2.631 2.123-4.25l-0.84-3.724c-0.41-1.599-2.095-2.913-3.745-2.922zm-21.568 28.818c-2.695 21.361-22.196 36.489-43.557 33.792-21.36-2.695-36.487-22.196-33.792-43.557s22.197-36.487 43.557-33.791c21.361 2.696 36.488 22.197 33.792 43.556z" fill="#618685"/>
    <path class="st0" d="m345.44 245c-1.65-9e-3 -3.608-1.221-4.353-2.693l-5.813-9.77c-0.941-1.355-1.074-3.653-0.294-5.107l9.355-17.443c0.78-1.454 0.43-3.563-0.778-4.687l-2.873-2.524c-1.27-1.054-3.405-1.128-4.745-0.165l-16.068 11.548c-1.34 0.963-3.635 1.13-5.101 0.371l-10.458-4.477c-1.557-0.545-3.014-2.329-3.237-3.963l-2.683-19.602c-0.224-1.635-0.995-3.058-1.716-3.162l-0.659-0.083c-2.62-0.332-4.82-0.457-4.82-0.457-1.647-0.094-3.419 1.111-3.937 2.678l-6.206 18.771c-0.518 1.566-2.275 3.055-3.906 3.307l-11.109 2.504c-1.578 0.479-3.805-0.103-4.946-1.293l-13.687-14.276c-1.142-1.191-3.255-1.508-4.696-0.704l-3.286 1.957c-1.394 0.884-2.123 2.894-1.621 4.465l6.015 18.842c0.502 1.572-0.048 3.807-1.221 4.967l-7.509 8.556c-1 1.313-3.147 2.147-4.771 1.854l-19.477-3.507c-1.623-0.292-3.521 0.693-4.216 2.189l-1.505 3.511c-0.608 1.534-0.018 3.588 1.313 4.564l15.953 11.718c1.33 0.977 2.142 3.097 1.805 4.712 0 0-0.282 1.351-0.562 3.563-0.459 3.641-0.429 7.79-0.429 7.79 0.013 1.65-1.193 3.587-2.679 4.305l-17.832 8.617c-1.485 0.718-2.441 2.63-2.123 4.248l0.84 3.725c0.41 1.599 2.096 2.913 3.746 2.922l19.805 0.102c1.65 9e-3 3.608 1.221 4.353 2.693l5.814 9.77c0.94 1.355 1.073 3.653 0.293 5.107l-9.355 17.444c-0.78 1.454-0.43 3.563 0.778 4.688l2.873 2.522c1.27 1.054 3.405 1.128 4.745 0.165l16.068-11.548c1.34-0.963 3.635-1.13 5.101-0.371l10.459 4.479c1.557 0.545 3.014 2.329 3.237 3.964l2.683 19.601c0.224 1.635 0.995 3.059 1.716 3.163l0.659 0.083c2.62 0.33 4.82 0.455 4.82 0.455 1.647 0.094 3.419-1.111 3.937-2.678l6.207-18.768c0.518-1.566 2.275-3.056 3.906-3.309l11.108-2.505c1.578-0.479 3.805 0.103 4.946 1.294l13.687 14.275c1.142 1.191 3.255 1.508 4.696 0.704l3.287-1.957c1.394-0.884 2.123-2.894 1.621-4.466l-6.015-18.842c-0.502-1.572 0.048-3.808 1.221-4.968l7.508-8.557c1-1.312 3.146-2.146 4.771-1.854l19.476 3.507c1.623 0.293 3.521-0.692 4.215-2.188l1.506-3.511c0.607-1.534 0.017-3.588-1.313-4.565l-15.952-11.717c-1.33-0.978-2.142-3.098-1.804-4.713 0 0 0.282-1.351 0.561-3.563 0.46-3.642 0.429-7.79 0.429-7.79-0.013-1.65 1.193-3.587 2.679-4.306l17.831-8.615c1.485-0.719 2.441-2.631 2.123-4.25l-0.84-3.724c-0.41-1.599-2.095-2.913-3.745-2.922zm-21.568 28.818c-2.695 21.361-22.196 36.489-43.557 33.792-21.36-2.695-36.487-22.196-33.792-43.557s22.197-36.487 43.557-33.791c21.361 2.696 36.488 22.197 33.792 43.556z" fill="none" stroke="#fff" stroke-miterlimit="10"/>
   </g>
   <g id="small_gear">
    <path class="st1" d="m212.32 318.52c1.044-0.348 1.924-1.531 1.956-2.631 0 0 0.065-2.231-0.036-4.381s-0.377-4.367-0.377-4.367c-0.136-1.091-1.123-2.187-2.194-2.435l-11.003-2.541c-1.071-0.248-2.262-1.294-2.644-2.325l-5.38-11.446c-0.556-0.949-0.606-2.531-0.114-3.515l5.052-10.092c0.492-0.983 0.262-2.427-0.513-3.208l-6.477-5.894c-0.851-0.697-2.31-0.792-3.242-0.209l-9.571 5.979c-0.933 0.583-2.513 0.681-3.51 0.217l-11.905-4.28c-1.063-0.284-2.216-1.37-2.563-2.414l-3.565-10.714c-0.347-1.044-1.531-1.924-2.63-1.956 0 0-2.232-0.065-4.381 0.036s-4.365 0.377-4.365 0.377c-1.092 0.135-2.188 1.123-2.435 2.194l-2.541 11.003c-0.248 1.071-1.294 2.262-2.325 2.644l-11.449 5.382c-0.95 0.555-2.531 0.605-3.515 0.113l-10.09-5.052c-0.984-0.492-2.427-0.262-3.208 0.514l-5.893 6.477c-0.698 0.851-0.792 2.31-0.209 3.242l5.979 9.57c0.583 0.933 0.681 2.513 0.217 3.511l-4.279 11.902c-0.284 1.063-1.37 2.217-2.414 2.564l-10.714 3.564c-1.043 0.348-1.924 1.531-1.956 2.631 0 0-0.065 2.232 0.036 4.381 0.102 2.149 0.376 4.366 0.376 4.366 0.136 1.091 1.124 2.187 2.195 2.435l11.001 2.54c1.072 0.248 2.262 1.294 2.645 2.325l5.381 11.447c0.555 0.949 0.606 2.531 0.114 3.515l-5.052 10.092c-0.493 0.983-0.262 2.427 0.513 3.208l6.477 5.895c0.85 0.697 2.309 0.792 3.242 0.209l9.57-5.979c0.933-0.583 2.513-0.681 3.51-0.217l11.905 4.28c1.063 0.284 2.216 1.371 2.563 2.414l3.565 10.713c0.347 1.043 1.531 1.924 2.63 1.956 0 0 2.231 0.065 4.38-0.036 2.149-0.102 4.366-0.377 4.366-0.377 1.092-0.135 2.188-1.123 2.435-2.195l2.541-11c0.248-1.072 1.294-2.263 2.325-2.645l11.449-5.382c0.95-0.555 2.531-0.605 3.515-0.113l10.09 5.051c0.983 0.492 2.427 0.262 3.208-0.513l5.894-6.477c0.697-0.851 0.792-2.31 0.209-3.242l-5.979-9.571c-0.583-0.933-0.681-2.513-0.217-3.51l4.279-11.902c0.284-1.063 1.37-2.217 2.414-2.564zm-58.694 27.201c-17.278 0.814-31.945-12.532-32.76-29.812-0.814-17.276 12.531-31.944 29.81-32.76 17.278-0.814 31.946 12.533 32.761 29.81 0.814 17.278-12.532 31.948-29.811 32.762z" fill="#618685"/>
    <path class="st0" d="m212.32 318.52c1.044-0.348 1.924-1.531 1.956-2.631 0 0 0.065-2.231-0.036-4.381s-0.377-4.367-0.377-4.367c-0.136-1.091-1.123-2.187-2.194-2.435l-11.003-2.541c-1.071-0.248-2.262-1.294-2.644-2.325l-5.38-11.446c-0.556-0.949-0.606-2.531-0.114-3.515l5.052-10.092c0.492-0.983 0.262-2.427-0.513-3.208l-6.477-5.894c-0.851-0.697-2.31-0.792-3.242-0.209l-9.571 5.979c-0.933 0.583-2.513 0.681-3.51 0.217l-11.905-4.28c-1.063-0.284-2.216-1.37-2.563-2.414l-3.565-10.714c-0.347-1.044-1.531-1.924-2.63-1.956 0 0-2.232-0.065-4.381 0.036s-4.365 0.377-4.365 0.377c-1.092 0.135-2.188 1.123-2.435 2.194l-2.541 11.003c-0.248 1.071-1.294 2.262-2.325 2.644l-11.449 5.382c-0.95 0.555-2.531 0.605-3.515 0.113l-10.09-5.052c-0.984-0.492-2.427-0.262-3.208 0.514l-5.893 6.477c-0.698 0.851-0.792 2.31-0.209 3.242l5.979 9.57c0.583 0.933 0.681 2.513 0.217 3.511l-4.279 11.902c-0.284 1.063-1.37 2.217-2.414 2.564l-10.714 3.564c-1.043 0.348-1.924 1.531-1.956 2.631 0 0-0.065 2.232 0.036 4.381 0.102 2.149 0.376 4.366 0.376 4.366 0.136 1.091 1.124 2.187 2.195 2.435l11.001 2.54c1.072 0.248 2.262 1.294 2.645 2.325l5.381 11.447c0.555 0.949 0.606 2.531 0.114 3.515l-5.052 10.092c-0.493 0.983-0.262 2.427 0.513 3.208l6.477 5.895c0.85 0.697 2.309 0.792 3.242 0.209l9.57-5.979c0.933-0.583 2.513-0.681 3.51-0.217l11.905 4.28c1.063 0.284 2.216 1.371 2.563 2.414l3.565 10.713c0.347 1.043 1.531 1.924 2.63 1.956 0 0 2.231 0.065 4.38-0.036 2.149-0.102 4.366-0.377 4.366-0.377 1.092-0.135 2.188-1.123 2.435-2.195l2.541-11c0.248-1.072 1.294-2.263 2.325-2.645l11.449-5.382c0.95-0.555 2.531-0.605 3.515-0.113l10.09 5.051c0.983 0.492 2.427 0.262 3.208-0.513l5.894-6.477c0.697-0.851 0.792-2.31 0.209-3.242l-5.979-9.571c-0.583-0.933-0.681-2.513-0.217-3.51l4.279-11.902c0.284-1.063 1.37-2.217 2.414-2.564zm-58.694 27.201c-17.278 0.814-31.945-12.532-32.76-29.812-0.814-17.276 12.531-31.944 29.81-32.76 17.278-0.814 31.946 12.533 32.761 29.81 0.814 17.278-12.532 31.948-29.811 32.762z" fill="none" stroke="#fff" stroke-miterlimit="10"/>
   </g>
  </g>
 </g>

</svg>
