<?xml version="1.0" encoding="UTF-8"?>
<!-- Created with Inkscape (http://www.inkscape.org/) -->
<svg width="45.213mm" height="31.071mm" version="1.1" viewBox="0 0 45.213249 31.070745" xmlns="http://www.w3.org/2000/svg" xmlns:cc="http://creativecommons.org/ns#" xmlns:dc="http://purl.org/dc/elements/1.1/" xmlns:rdf="http://www.w3.org/1999/02/22-rdf-syntax-ns#">

 <g transform="translate(-92.298 -124.98)">
  <g transform="matrix(.26458 0 0 .26458 92.298 124.98)">
   <path id="large" d="m116.86 48.811c0.533-0.134 0.996-0.692 1.027-1.241 0 0 0.064-1.101 0.064-2.166s-0.064-2.166-0.064-2.166c-0.031-0.549-0.494-1.107-1.027-1.241l-8.263-2.064c-0.533-0.134-1.064-0.683-1.18-1.22l-1.315-4.929c-0.168-0.523 0.017-1.264 0.412-1.646l6.137-5.927c0.396-0.382 0.508-1.092 0.25-1.578l-2.156-3.737c-0.291-0.467-0.962-0.725-1.491-0.574l-8.207 2.342c-0.529 0.151-1.264-0.06-1.632-0.468l-3.622-3.627c-0.408-0.369-0.617-1.104-0.466-1.633l2.348-8.206c0.151-0.529-0.106-1.2-0.572-1.492l-3.725-2.154c-0.485-0.258-1.196-0.146-1.579 0.249l-5.936 6.127c-0.383 0.395-1.124 0.58-1.647 0.41l-4.982-1.333c-0.538-0.116-1.087-0.647-1.221-1.181l-2.071-8.263c-0.134-0.534-0.692-0.996-1.242-1.028 0 0-1.092-0.063-2.153-0.063s-2.152 0.061-2.152 0.061c-0.549 0.032-1.108 0.494-1.242 1.028l-2.071 8.263c-0.134 0.534-0.683 1.065-1.221 1.181l-4.982 1.333c-0.523 0.17-1.264-0.015-1.647-0.41l-5.936-6.127c-0.383-0.395-1.093-0.507-1.579-0.249l-3.725 2.154c-0.466 0.292-0.724 0.963-0.573 1.492l2.349 8.206c0.151 0.529-0.059 1.264-0.466 1.633l-3.622 3.627c-0.369 0.408-1.103 0.619-1.632 0.468l-8.208-2.342c-0.529-0.151-1.2 0.107-1.491 0.574l-2.154 3.737c-0.258 0.486-0.146 1.196 0.25 1.578l6.136 5.928c0.396 0.382 0.581 1.123 0.412 1.646l-1.315 4.929c-0.115 0.538-0.646 1.086-1.18 1.22l-8.262 2.064c-0.534 0.134-0.997 0.692-1.028 1.241 0 0-0.064 1.101-0.064 2.166s0.064 2.166 0.064 2.166c0.032 0.549 0.495 1.107 1.028 1.241l8.262 2.064c0.534 0.134 1.065 0.683 1.18 1.22l1.315 4.93c0.169 0.523-0.017 1.264-0.412 1.646l-6.136 5.93c-0.396 0.382-0.508 1.092-0.25 1.577l2.156 3.737c0.291 0.467 0.962 0.726 1.491 0.574l8.207-2.342c0.529-0.151 1.263 0.06 1.632 0.468l3.622 3.627c0.407 0.37 0.617 1.104 0.466 1.634l-2.349 8.205c-0.151 0.529 0.106 1.2 0.573 1.492l3.725 2.155c0.486 0.258 1.196 0.146 1.579-0.248l5.936-6.128c0.383-0.395 1.124-0.579 1.647-0.409l4.983 1.333c0.538 0.115 1.087 0.646 1.221 1.18l2.071 8.264c0.134 0.533 0.692 0.996 1.242 1.027 0 0 1.092 0.063 2.153 0.063s2.153-0.063 2.153-0.063c0.549-0.031 1.108-0.494 1.242-1.027l2.071-8.264c0.134-0.533 0.683-1.064 1.221-1.18l4.983-1.333c0.523-0.17 1.264 0.015 1.647 0.409l5.936 6.128c0.382 0.395 1.093 0.506 1.578 0.248l3.725-2.155c0.466-0.292 0.724-0.963 0.572-1.492l-2.348-8.205c-0.151-0.529 0.058-1.264 0.466-1.634l3.622-3.627c0.368-0.408 1.103-0.619 1.632-0.468l8.206 2.342c0.529 0.151 1.2-0.107 1.491-0.574l2.156-3.738c0.258-0.485 0.146-1.195-0.25-1.577l-6.136-5.928c-0.396-0.382-0.58-1.123-0.412-1.646l1.315-4.929c0.115-0.538 0.646-1.086 1.18-1.22zm-44.312 22.739c-14.439 0-26.145-11.707-26.145-26.146s11.706-26.145 26.145-26.145c14.438 0 26.145 11.705 26.145 26.145-1e-3 14.439-11.707 26.146-26.145 26.146z"/>
   <path id="medium" d="m162.61 54.537c-0.54-0.107-1.145-0.614-1.344-1.126l-1.624-3.518c-0.263-0.483-0.287-1.286-0.055-1.785l3.102-6.649c0.232-0.499 0.112-1.232-0.267-1.631l-1.958-1.906c-0.408-0.369-1.135-0.45-1.614-0.181l-6.17 3.465c-0.479 0.27-1.271 0.28-1.757 0.023l-3.904-1.722c-0.517-0.188-1.052-0.777-1.188-1.31l-1.788-6.941c-0.137-0.532-0.696-1.021-1.242-1.085 0 0-0.54-0.063-1.321-0.107s-1.325-0.04-1.325-0.04c-0.55 3e-3 -1.16 0.426-1.355 0.94l-2.546 6.7c-0.195 0.514-0.793 1.04-1.327 1.169l-4.071 1.279c-0.512 0.201-1.296 0.103-1.743-0.218l-5.747-4.128c-0.447-0.321-1.178-0.321-1.624 0l-2.157 1.677c-0.421 0.354-0.622 1.07-0.446 1.591l2.346 6.953c0.176 0.521 0.062 1.317-0.253 1.768l-2.005 3.314c-0.255 0.487-0.911 0.924-1.459 0.97l-7.03 0.592c-0.548 0.046-1.102 0.521-1.229 1.056l-0.592 3.026c-0.084 0.544 0.23 1.223 0.7 1.51l6.401 3.909c0.47 0.287 0.905 0.969 0.97 1.515l0.469 2.78c0.121 0.537-0.097 1.295-0.485 1.685l-5.014 5.035c-0.389 0.39-0.505 1.111-0.258 1.604l1.794 3.211c0.29 0.467 0.972 0.778 1.515 0.691l7.435-1.192c0.543-0.087 1.315 0.149 1.717 0.526l1.129 0.982c0.43 0.345 0.739 1.074 0.688 1.622l-0.666 7.203c-0.051 0.548 0.316 1.187 0.814 1.419l3.837 1.557c0.519 0.183 1.236-0.011 1.595-0.428l4.826-5.621c0.358-0.417 1.081-0.713 1.606-0.657l0.486 0.028 0.485 0.026c0.528 2e-3 1.214 0.376 1.523 0.83l4.173 6.122c0.31 0.454 1.002 0.726 1.538 0.603l3.986-1.122c0.521-0.176 0.956-0.77 0.967-1.319l0.138-7.231c0.011-0.55 0.399-1.241 0.864-1.536l1.23-0.853c0.44-0.329 1.234-0.479 1.765-0.332l7.255 2.011c0.53 0.146 1.242-0.087 1.582-0.52l2.141-2.993c0.299-0.461 0.264-1.191-0.079-1.621l-4.424-5.561c-0.343-0.43-0.476-1.207-0.296-1.728l0.774-2.712c0.124-0.536 0.633-1.165 1.132-1.398l6.795-3.175c0.499-0.233 0.887-0.873 0.863-1.423l-0.252-3.072c-0.068-0.546-0.565-1.079-1.105-1.186zm-8.106 7.484c-0.454 8.148-7.429 14.389-15.578 13.935-8.149-0.452-14.389-7.428-13.936-15.577s7.429-14.39 15.578-13.935c8.15 0.453 14.389 7.427 13.936 15.577z"/>
   <path id="small" d="m52.209 97.813c0.134-0.533-0.101-1.259-0.522-1.612l-5.651-4.738c-0.421-0.354-0.826-1.089-0.898-1.634l-1.584-6.477c-0.194-0.515-0.182-1.352 0.028-1.86l2.81-6.817c0.209-0.509 0.081-1.26-0.286-1.67l-1.103-1.15c-0.394-0.385-1.138-0.545-1.655-0.356l-6.924 2.522c-0.517 0.188-1.354 0.168-1.861-0.046l-6.4-1.84c-0.542-0.094-1.26-0.526-1.596-0.962l-4.509-5.854c-0.336-0.436-1.051-0.7-1.589-0.588l-1.546 0.377c-0.53 0.147-1.042 0.712-1.137 1.253l-1.281 7.279c-0.095 0.541-0.531 1.257-0.969 1.59l-4.812 4.61c-0.352 0.423-1.086 0.828-1.631 0.901l-7.315 0.977c-0.545 0.073-1.13 0.561-1.3 1.084l-0.44 1.525c-0.134 0.533 0.101 1.259 0.522 1.612l5.651 4.738c0.421 0.354 0.826 1.089 0.898 1.634l1.584 6.478c0.194 0.515 0.182 1.352-0.028 1.86l-2.81 6.818c-0.209 0.509-0.081 1.26 0.286 1.67l1.103 1.149c0.393 0.385 1.138 0.545 1.654 0.356l6.924-2.522c0.517-0.188 1.354-0.168 1.861 0.046l6.401 1.84c0.542 0.094 1.26 0.526 1.596 0.962l4.509 5.853c0.336 0.436 1.051 0.7 1.589 0.588l1.546-0.377c0.53-0.147 1.042-0.712 1.137-1.254l1.28-7.277c0.095-0.541 0.531-1.257 0.969-1.59l4.812-4.61c0.352-0.423 1.086-0.828 1.631-0.901l7.315-0.977c0.545-0.073 1.13-0.561 1.3-1.084zm-26.085 6.052c-7.066 0-12.794-5.728-12.794-12.794 0-7.065 5.728-12.795 12.794-12.795s12.795 5.729 12.795 12.795c-1e-3 7.067-5.73 12.794-12.795 12.794z"/>
  </g>
 </g>
</svg>
