<?xml version="1.0" encoding="utf-8"?>
<!-- Generator: Adobe Illustrator 16.0.0, SVG Export Plug-In . SVG Version: 6.00 Build 0)  -->
<!DOCTYPE svg PUBLIC "-//W3C//DTD SVG 1.1//EN" "http://www.w3.org/Graphics/SVG/1.1/DTD/svg11.dtd">
<svg version="1.1" xmlns="http://www.w3.org/2000/svg" xmlns:xlink="http://www.w3.org/1999/xlink" x="0px" y="0px" width="612px"
	 height="792px" viewBox="0 0 612 792" style="enable-background:new 0 0 612 792;" xml:space="preserve">
<style type="text/css">
<![CDATA[
	.st0{fill:#AA6B64;}
	.st1{fill:#AA8B61;}
	.st2{fill:#AC2623;}
	.st3{fill:none;stroke:#D6D7D8;stroke-miterlimit:10;}
	.st4{fill:#101A34;}
	.st5{fill:#131724;}
	.st6{fill:none;stroke:#5B5C5C;stroke-miterlimit:10;}
	.st7{fill:#151515;}
	.st8{fill:#19224F;}
	.st9{fill:#4E1515;}
	.st10{fill:#4F4E40;}
	.st11{fill:#1B191A;}
	.st12{fill:#EFEFEF;}
	.st13{fill:#5B2524;}
	.st14{fill:#F7C794;}
	.st15{fill:#C09166;}
	.st16{fill:#2B2B29;}
	.st17{fill:#605E51;}
	.st18{fill:#FFFFFF;stroke:#5B5C5C;stroke-miterlimit:10;}
	.st19{fill:#FFFFFF;}
	.st20{fill:#686868;}
	.st21{opacity:0.5;fill:#FFFFFF;stroke:#C9B189;stroke-miterlimit:10;}
	.st22{fill:#333333;}
	.st23{fill:#6B6A5D;}
	.st24{fill:#6D3E3A;}
	.st25{fill:#D3A479;}
	.st26{stroke:#000000;stroke-miterlimit:10;}
	.st27{fill:#D55B45;}
	.st28{fill:#FFFFFF;stroke:#CFCECE;stroke-miterlimit:10;}
	.st29{fill:#050606;stroke:#000000;stroke-miterlimit:10;}
	.st30{fill:#0A1526;}
	.st31{fill:#0B142C;}
	.st32{fill:#0D121F;}
]]>
</style>
<g id="outfit">
	<g id="shirt_x5F_folder">
		<polygon id="shirt_1_" class="st19" points="340.571,478.779 335.441,455.361 328.114,453.638 314.075,478.779 267.545,478.779 
			262.886,465.563 243.059,455.218 243.059,478.779 232.284,478.779 232.284,756.358 350.671,756.358 350.671,478.779 		"/>
		<path id="collar" class="st28" d="M325.527,431.188c0,0-1.437,20.078-15.408,34.625c0,0-3.485,4.311-14.332,12.895
			c0,0-1.832,0.432-3.987,0c-2.155-0.431-17.672-13.793-22.305-18.211c-4.634-4.418-16.702-14.547-16.595-22.844
			c0.108-8.297-0.107-8.62,2.479-15.948l-0.754-1.4l-5.388,10.021l0.241,1.289c0,0,0.549,1.22-0.654,4.464
			c0,0-1.384,3.406-1.428,12.35l1.142,15.314c0,0-0.162,4.729,17.187,23.047l13.35,14.87c0,0,6.908-15.193,9.818-19.073
			c0,0,2.263-3.232,3.771-2.801c0,0,1.508-0.216,2.694-0.108c1.185,0.108,5.711-0.323,11.961,14.224l4.525,8.729
			c0,0,10.475-14.331,13.75-22.629c3.275-8.297,2.408-4.406,5.806-15.295l-1.609-17.028l-0.598-9.378
			C329.191,438.3,327.036,430.649,325.527,431.188z"/>
		<path id="shirt_x5F_edge" class="st3" d="M289.397,484.814c0,0-3.379,3.448-2.23,6.896c1.149,3.448,3.311,10.057,2.23,14.655
			c-1.081,4.598-0.069,15.23,0,42.527c0.069,27.298,2.943,50.287,1.793,65.516c-1.15,15.229,1.437,37.643,1.724,53.447
			c0.287,15.804,1.15,11.78,0,28.734c-1.15,16.953,1.437,26.436,2.586,31.608c1.149,5.172,0,16.953-2.586,24.711
			c-2.586,7.759-0.288,4.599-0.288,4.599s6.898,1.986,8.334,1.412s2.022-0.292,5.04-1.046c3.018-0.754,2.341-16.987,2.341-16.987
			s-0.024-9.821-1.091-21.763c-0.788-8.828-0.903-24.044-0.687-36.221c0.215-12.176-1.867-23.097-1.867-26.257
			s-1.724-28.096-1.724-35.168s2.012-36.669,0.862-43.277s-2.012-36.206-1.437-40.804c0.575-4.597,0.862-21.55-0.862-27.01
			c-1.724-5.461-1.154-22.986-3.307-25.574c-2.152-2.587-4.175-5.152-4.175-5.152L289.397,484.814z"/>
	</g>
	<g id="buttons">
		<g>
			<ellipse class="st6" cx="295.093" cy="513.136" rx="4.31" ry="4.364"/>
			<g>
				<ellipse class="st2" cx="294.313" cy="512.395" rx="0.651" ry="0.659"/>
				<ellipse class="st2" cx="295.872" cy="512.402" rx="0.651" ry="0.659"/>
				<ellipse class="st2" cx="294.313" cy="513.877" rx="0.651" ry="0.659"/>
				<ellipse class="st2" cx="295.872" cy="513.877" rx="0.651" ry="0.659"/>
			</g>
		</g>
		<g>
			<ellipse class="st18" cx="293.662" cy="484.026" rx="4.31" ry="4.364"/>
			<g>
				<ellipse class="st2" cx="292.883" cy="483.284" rx="0.651" ry="0.659"/>
				<ellipse class="st2" cx="294.441" cy="483.293" rx="0.651" ry="0.659"/>
				<ellipse class="st2" cx="292.883" cy="484.767" rx="0.651" ry="0.659"/>
				<ellipse class="st2" cx="294.441" cy="484.767" rx="0.651" ry="0.659"/>
			</g>
		</g>
		<g>
			<ellipse class="st6" cx="296.522" cy="561.522" rx="4.31" ry="4.364"/>
			<g>
				<ellipse class="st2" cx="295.743" cy="560.781" rx="0.651" ry="0.658"/>
				<ellipse class="st2" cx="297.301" cy="560.789" rx="0.651" ry="0.659"/>
				<ellipse class="st2" cx="295.743" cy="562.264" rx="0.651" ry="0.659"/>
				<ellipse class="st2" cx="297.301" cy="562.264" rx="0.651" ry="0.659"/>
			</g>
		</g>
		<g>
			<ellipse class="st6" cx="297.301" cy="607.665" rx="4.31" ry="4.364"/>
			<g>
				<ellipse class="st2" cx="296.521" cy="606.924" rx="0.651" ry="0.659"/>
				<ellipse class="st2" cx="298.08" cy="606.932" rx="0.651" ry="0.659"/>
				<ellipse class="st2" cx="296.521" cy="608.406" rx="0.651" ry="0.659"/>
				<ellipse class="st2" cx="298.08" cy="608.406" rx="0.651" ry="0.659"/>
			</g>
		</g>
		<g>
			<ellipse class="st6" cx="298.228" cy="657.013" rx="4.31" ry="4.364"/>
			<g>
				<ellipse class="st2" cx="297.448" cy="656.271" rx="0.651" ry="0.659"/>
				<ellipse class="st2" cx="299.007" cy="656.28" rx="0.651" ry="0.659"/>
				<ellipse class="st2" cx="297.448" cy="657.754" rx="0.651" ry="0.659"/>
				<ellipse class="st2" cx="299.007" cy="657.754" rx="0.651" ry="0.659"/>
			</g>
		</g>
		<g>
			<ellipse class="st6" cx="299.403" cy="703.121" rx="4.31" ry="4.364"/>
			<g>
				<ellipse class="st2" cx="298.624" cy="702.38" rx="0.651" ry="0.659"/>
				<ellipse class="st2" cx="300.182" cy="702.389" rx="0.651" ry="0.659"/>
				<ellipse class="st2" cx="298.624" cy="703.862" rx="0.651" ry="0.659"/>
				<ellipse class="st2" cx="300.182" cy="703.862" rx="0.651" ry="0.659"/>
			</g>
		</g>
		<g>
			<ellipse class="st6" cx="300.182" cy="745.251" rx="4.31" ry="4.364"/>
			<g>
				<ellipse class="st2" cx="299.402" cy="744.51" rx="0.651" ry="0.659"/>
				<ellipse class="st2" cx="300.96" cy="744.519" rx="0.651" ry="0.659"/>
				<ellipse class="st2" cx="299.402" cy="745.992" rx="0.651" ry="0.659"/>
				<ellipse class="st2" cx="300.96" cy="745.992" rx="0.651" ry="0.659"/>
			</g>
		</g>
	</g>
	<g id="belt_2_">
		<path id="belt_1_" class="st31" d="M343.847,745.618c0,0-11.423,2.06-17.098,4.044c-5.675,1.983-19.331,2.197-21.267,2.052
			c0,0-3.75,0.167-5.172,1.088s-1.594,1.002-3.081,1.208c-1.487,0.205-3.456,0.326-4.75,0s-6.821,0.382-6.821,0.382
			s-0.144-2.136-2.802-2.746s-4.046-0.687-3.783,2.67c0,0-6.099,0.82-7.098-2.438l-1.618,17.793h75.967l-1.534-24.658
			L343.847,745.618z"/>
		<path id="belt" class="st9" d="M343.847,747.881c0,0-11.423,1.94-17.098,3.808c-5.675,1.868-19.331,2.069-21.267,1.934
			c0,0-3.75,0.157-5.172,1.024s-1.594,0.943-3.081,1.137c-1.487,0.194-3.456,0.308-4.75,0c-1.294-0.307-6.821,0.359-6.821,0.359
			s-0.144-2.011-2.802-2.586c-2.658-0.574-4.046-0.646-3.783,2.515c-3.421-0.166-3.02,0.328-7.197-1.271l-2.265,17.269l11.264,0.994
			l16.583-0.541l18.917-0.771l13.25-1.033l16.699-0.185l-1.534-23.222L343.847,747.881z"/>
		<path class="st32" d="M285.658,756.143c0,0-0.144,3.377,0,5.748c0.144,2.37-0.215,7.945,0,8.642
			c0.216,0.696,0.106,2.371,0.106,2.371l-4.536,0.159l-2.541-0.193l0.386-2.337c0,0,0.167-10.413,0-11.611
			c-0.167-1.197,0-2.85,0-2.85s-0.128-1.549,0-2.21c0.128-0.66,3.581-2.042,5.041-0.269
			C284.114,753.593,285.227,754.167,285.658,756.143z"/>
		<path class="st20" d="M282.749,762.087c0,0,1.131,0.553,3.771,0.507v1.795c0,0-3.071-0.185-3.771-0.599
			C282.048,763.376,282.749,762.087,282.749,762.087z"/>
		<g>
			<ellipse class="st7" cx="317.32" cy="761.178" rx="1.789" ry="1.318"/>
			<ellipse class="st20" cx="317.32" cy="761.519" rx="1.789" ry="1.317"/>
		</g>
		<g>
			<ellipse class="st7" cx="335.58" cy="759.991" rx="1.79" ry="1.318"/>
			<ellipse class="st20" cx="335.58" cy="760.331" rx="1.79" ry="1.317"/>
		</g>
		<path class="st13" d="M295.931,755.888c0,0,1.096-0.69,1.527,0.729c0.525,1.729,0.539,1.724,0.539,1.724s1.403,3.678,1.296,14.106
			l6.278-0.256l-1.665-13.335c0,0-0.354-3.188-2.294-4.149c-1.94-0.961-4.387,0.294-4.387,0.294l-2.784,0.97L295.931,755.888z"/>
		<path class="st30" d="M326.959,751.619c0,0,1.096-0.9,1.527,0.949c0.525,2.254,0.538,2.248,0.538,2.248s1.294,2.299,1.187,15.9
			l5.852-0.071l-1.129-15.156c0,0-0.354-4.159-2.294-5.411c-1.939-1.253-4.387,0.383-4.387,0.383l-2.784,1.264L326.959,751.619z"/>
	</g>
	<g id="suit">
		<path id="right_x5F_part" class="st8" d="M254.84,511.896c-3.448-28.231-10.196-63.399-6.25-74.782
			c1.401-4.04,0.808-5.926,0.808-5.926s-1.616,3.825-6.627,7.219c-10.1,6.842-20.689,10.776-27.585,14.655
			c-6.896,3.879-13.792,5.604-17.241,6.896s-10.775,4.31-16.379,6.465c-5.603,2.155-14.224,6.896-15.517,7.327
			c-1.293,0.432-10.775-0.861-11.207,8.189c-0.431,9.052-7.327,39.941-14.798,60.057c-7.471,20.114-11.781,36.493-10.345,53.159
			c0,0-0.072,13.936-3.951,22.341c0,0-4.095,15.086-3.448,23.06c0,0,0.431,14.009-1.078,17.672c0,0-3.017,12.284-1.078,23.922
			c0,0,3.232,14.654,1.724,20.904c-1.509,6.25-1.509,26.939-0.862,39.438c0.646,12.5,2.155,22.845,3.448,26.939
			s49.999,1.1,49.999,1.1s0.431-23.944,0.431-30.194c0-6.249,1.508-6.249,1.724-12.283c0.215-6.035,5.172-15.518,3.017-26.077
			c-2.155-10.561,3.667-23.491,4.851-29.094c1.184-5.604-0.537-16.595,0-23.706c0.537-7.112,1.83-16.811,2.908-21.767
			c0,0,5.819,14.438,5.388,30.387c-0.431,15.947-0.646,30.171-6.681,48.274c0,0-1.939,5.388-2.586,13.577
			c-0.647,8.189-2.802,12.068-3.018,15.086c-0.215,3.017-2.801,4.31-2.371,11.206c0.431,6.896-1.293,21.098-0.862,22.845
			c0.431,1.746,89.868,8.404,89.868,8.404l3.232-6.658c0,0,4.957-52.176,6.896-67.262c0,0,4.095-19.181,0-47.197
			C273.159,628.058,258.289,540.129,254.84,511.896z"/>
		<path id="left_x5F_part" class="st8" d="M451.817,734.808c-2.873-8.62-5.747-46.263-6.394-52.585s-0.503-13.937-2.442-15.588
			c-1.939-1.652-2.802-5.604-3.018-9.482c-0.215-3.88-0.215-5.389-1.364-9.124s-2.586-4.311-2.299-14.368
			c0.287-10.057-4.598-20.401-4.598-20.401c-5.172-31.034-2.299-22.413-3.736-44.826c-1.437-22.413-7.722-53.303-7.722-53.303
			c-5.173-35.883-7.436-38.361-7.436-38.361c-2.047-4.849-6.142-3.448-6.142-3.448c-1.401,0-15.841-6.357-21.767-9.267
			c-5.927-2.909-39.008-15.086-39.008-15.086c-13.685-4.957-16.702-10.668-16.702-10.668c0.646,13.828,2.802,37.895,6.538,51.688
			c3.735,13.793,4.237,109.191,4.237,109.191s-0.754,63.145-0.538,84.049c0.215,20.905,1.724,27.155,3.124,37.822
			c1.401,10.668,3.771,49.482,3.771,49.482l1.617,1.702c0,0,50.214,7.004,50.105,0.215c-0.107-6.788-4.633-32.542-5.818-38.792
			c-1.186-6.249-3.879-28.124-6.25-37.499c-2.37-9.374-1.832-28.662-2.586-32.649s0.323-22.952,0.323-22.952
			s3.448,4.957,1.724,9.482c-1.724,4.526,1.078,7.112,0.862,11.422c-0.216,4.311-1.077,11.854-0.216,16.595
			c0.862,4.741,3.018,7.759,3.448,13.361c0.432,5.604,2.155,10.561,2.802,15.518c0.646,4.956,1.725,15.947,2.802,22.628
			c1.078,6.682,3.232,7.759,3.232,14.871c0,7.111,6.609,24.854,6.609,24.854l0.287,4.023l45.976-2.779
			c0,0-0.287-11.589,0.575-17.623S454.69,743.428,451.817,734.808z"/>
		<path id="upper_x5F_pocket" class="st5" d="M392.336,543.721c0,0-6.081,9.749-33.068,13.351l-0.526,7.545
			c0,0,23.179,1.518,33.595-11.772V543.721z"/>
		<path id="right_x5F_pocket" class="st5" d="M228.44,718.248c0,0-12.552-5.224-27.37-8.943c0,0-8.029-1.483-14.036-6.184
			l-1.988,6.648c0,0,9.45,5.246,20.441,8.479c10.991,3.233,20.042,6.789,21.335,7.436l1.616-7.004"/>
		<path id="left_x5F_pocket" class="st5" d="M364.966,716.524c0,0,17.723-10.461,21.954-16.113l1.298,7.209
			c0,0-9.351,9.981-20.234,15.585L364.966,716.524z"/>
		<path id="left_x5F_lapel" class="st4" d="M336.068,444.365c3.538,1.992,3.252,3.094,5.407,7.188s6.573,9.052,9.59,13.577
			c3.018,4.525,4.311,7.004,4.418,7.866c0.108,0.862-6.357,4.849-6.357,4.849l10.129,4.418c0,0,0.646,25.107,1.078,41.271
			c0.431,16.163-1.725,45.904-3.125,57.865c-1.401,11.961-6.789,55.709-8.62,69.933c-1.832,14.224-6.682,23.922-7.328,50.969
			l1.707,22.404l-2.331-17.901l-1.195-22.571l0.135-46.046l0.377-41.378l-0.742-48.703l-2.187-49.038c0,0-0.278-7.089-1.899-11.461
			c0,0-3.044-13.568-3.555-21.183l-1.575-15.727l-0.684-10.064l-0.119-2.333C329.191,438.3,333.356,442.839,336.068,444.365z"/>
		<path id="right_x5F_lapel" class="st4" d="M235.229,443.006l-6.537,23.921l7.255,6.537l-12.931,6.106
			c0,0,3.141,26.797,22.87,95.472c0,0,12.689,44.107,19.298,62.211c6.609,18.103,13.123,28.878,13.889,43.82
			c0,0-0.11-14.834-1.037-18.893l-1.75-12.547l-3.382-21.468l-4.44-27.588l-4.545-28.289l-10.396-70.498
			c0,0-4.561-33.42-4.698-34.614c-0.136-1.194-1.648-20.303-1.332-23.487s0.516-5.447,1.723-8.759c0,0,0.884-3.042,0.183-3.742
			c0,0-3.241,5.089-7.024,7.485L235.229,443.006z"/>
		<ellipse id="suit_x5F_button" cx="269.223" cy="694.722" rx="5.411" ry="6.286"/>
		<path id="pocket_x5F_square" class="st19" d="M391.25,544.511l-15.712-21.336l-16.271,33.896
			C359.268,557.071,384.776,553.993,391.25,544.511z"/>
	</g>
</g>
<g id="face_x5F_and_x5F_ears">
	<path class="st14" d="M168.418,361.9c0,0,6.897,31.896,16.092,49.137c9.195,17.241,17.241,27.3,24.137,35.632
		c6.896,8.333,13.505,11.781,41.953,35.918c0,0,12.069,12.931,34.482,18.103c0,0,20.976,2.013,28.448,2.013
		c7.471,0,30.17-10.92,34.769-16.954c4.598-6.034,15.23-26.723,32.184-35.631c0,0,17.743-13.29,38.145-61.277
		c0,0,13.865-29.525,19.037-61.708s5.46-22.988,5.46-22.988s7.471-15.517,10.919-23.275s8.332-16.666,2.586-18.103
		c-5.746-1.437-10.058,5.172-10.345,10.632c-0.287,5.459,0.288-31.034,0.288-31.034s2.37-5.675-2.228-16.594
		c-4.597-10.919-3.52-9.914-3.52-9.914s0.646-0.431,5.604,4.957c4.957,5.388-8.765-13.434-8.765-13.434s2.371,0.216,6.034,4.741
		c3.664,4.526-7.111-16.378-7.111-16.378s3.879,1.724,6.465,7.758s-0.862-10.129-9.913-14.008c0,0-0.862-1.293,0.215-5.604
		c1.078-4.31-0.861-9.913-1.724-11.853c-0.862-1.939-3.879-28.232-21.767-32.757c-17.888-4.526-31.033-6.896-46.119-7.759
		c-15.086-0.862-52.801-2.371-73.489,2.802c-20.689,5.172-40.516,19.827-49.999,22.198s-18.965-35.344-48.274,18.534
		c-2.902,5.334-17.888,5.172-18.75,10.129c-0.862,4.957-1.293,12.068-11.207,18.103c-9.914,6.035,6.465,12.715,3.017,27.155
		c0,0-5.388,16.594-4.311,27.37c1.078,10.775,0.362,23.706-0.142,30.171v13.793l-1.151-0.646l-1.078-15.086
		c0,0-2.586-13.577-7.758-20.258c-5.172-6.681-8.405-4.741-10.775,1.077c0,0-2.155,4.957,1.293,12.284c0,0,1.509,6.25,1.509,9.698
		s1.293,8.836,4.741,14.87s5.819,13.577,7.543,22.413s4.095,13.146,3.232,19.181c-0.862,6.034,1.293,7.112,4.31,10.991
		C165.473,360.177,168.418,361.9,168.418,361.9z"/>
	<path class="st25" d="M149.668,276.127c0,0-2.961-5.387-7.623-6.465c0,0-1.804,0.861,0,6.465c1.804,5.604-0.295,8.191,0,10.992
		s0.814,6.25,3.41,9.482c2.596,3.233,4.859,7.651,6.044,11.422c1.186,3.771,0.108-5.077-3.34-12.991
		c-3.448-7.914-5.064-3.496-4.633-11.577c0.431-8.082,1.832-7.22,0.215-10.021S145.25,272.571,149.668,276.127z"/>
	<path class="st25" d="M149.561,279.468c0.431,0,1.508,2.571,1.724,4.464c0.215,1.894,0.82,6.742,0.679,9.544
		s0.291,9.375,3.092,14.871c2.801,5.495-3.879-3.894-4.849-14.447c0,0,1.078-3.548,0.754-6.781
		C150.638,283.886,149.561,279.468,149.561,279.468z"/>
	<path class="st25" d="M154.84,311.687c0,0,0,4.382,6.035,12.931c12.308,17.437-4.458-2.748-5.138-6.035
		C155.059,315.297,154.84,311.687,154.84,311.687z"/>
	<path class="st25" d="M447.863,275.194c0,0,2.013-3.879,6.035-6.178c0,0,5.458-2.587-0.72,7.111c0,0-6.407,6.395-9.885,12.86
		c-3.477,6.465,0,0,0,0S443.984,278.067,447.863,275.194z"/>
</g>
<g id="hat">
	<path class="st22" d="M152.771,190.581c0,0-4.425,12.913-3.926,27.248c0,0-0.529,14.551-0.506,15.952
		c0.023,1.4,0.87,8.974,0.639,10.239c0,0-0.329,1.911-1.436,3.163c0,0-0.999,3.556,0.16,4.963c0,0-6.439-4.465-5.577-38.516
		c0,0,1.946-20.042,5.283-38.577c0,0,3.337-11.637,6.57-16.594c3.232-4.957,1.508-10.56,1.724-12.068
		c0.215-1.509,4.526-14.871,12.5-27.801c7.974-12.931,5.819-12.5,9.267-17.672c3.448-5.172,28.447-25.344,33.188-29.805
		s29.763-24.494,79.211-37.752c49.448-13.259-30.937,39.829-30.937,39.829l-53.447,40.516l-32.47,51.723l-13.793,22.126
		L152.771,190.581z"/>
	<path class="st11" d="M456.299,225.265c0,0,11.185-25.356,2.884-45.183c0,0,16.409,0.575,21.582-19.827
		c5.172-20.402-9.77-62.197-33.045-89.143c-23.275-26.945-117.238-89.717-219.821,0c0,0-49.352,55.667-65.946,99.846
		c0,0-3.448,6.035-6.681,8.836c-3.232,2.802-5.011,4.019-3.879,7.543c1.132,3.524,0.938,3.88,0.938,3.88s0.407-0.818,0.664-0.715
		s0.611,0.767,1.067,1.271c0.456,0.503,0.936,2.195,2.701,2.173c1.766-0.022,2.742-0.229,3.516-0.633
		c0.774-0.404,5.028-3.002,7.024-7.533s4.5-6.44,6.724-12.463c0,0,6.203-14.218,6.78-15.328c0.578-1.109,5.743-10.801,11.943-16.605
		c0,0,9.466-10.145,11.489-12.39c2.022-2.245,9.015-11.061,12.854-13.211c3.839-2.15,2.828-4.182,20.287-9.918
		c0,0,8.659-2.253,10.347-2.54c1.688-0.287,19.263-5.196,19.263-5.196l17.026-4.705c0,0,13.636-4.066,18.486-3.404
		c4.85,0.662,18.886,1.637,18.886,1.637l19.076,0.938c0,0,15.786,1.397,20.27,3.37c0,0,14.787,4.146,20.339,7.594
		c0,0,14.735,8.018,16.625,9.223c1.89,1.205,19.911,13.641,19.911,13.641s10.939,6.101,18.371,17.831s13.036,23.315,13.036,23.315
		s3.914,8.619,5.027,13.09c0,0,4.858,5.711,5.142,16.433c0,0-0.153,13.848-0.615,18.596
		C458.106,220.432,456.299,225.265,456.299,225.265z"/>
</g>
<g id="eyes">
	<path class="st26" d="M282.208,273.757c0,0-3.448-4.885-9.195-7.184c-5.747-2.299-28.735-8.045-38.217-11.781
		s-11.494-5.58-21.838-2.646c-10.345,2.934-17.384,7.819-24.281,12.991l6.465-2.91l-3.017,3.341l8.189-3.341l-4.311,4.203
		c0,0,10.345,0.215,18.534-0.431s27.585,1.293,36.852,4.526c9.267,3.232,26.292,5.172,29.094,5.388
		c2.802,0.215,2.802,0.215,2.802,0.215L282.208,273.757z"/>
	<path class="st21" d="M347.378,285.826c0,0,9.267-9.699,20.688-9.699s16.595,1.724,17.672,1.509
		c1.078-0.215,12.931,9.483,18.75,11.638c0,0-7.328,0-10.345,1.508c-3.018,1.509-12.715,6.681-24.784,4.311
		c-12.068-2.371-20.474-6.896-23.274-7.328C343.283,287.334,347.378,285.826,347.378,285.826z"/>
	<path class="st21" d="M260.925,285.917c0,0-5.029-3.826-13.362-8.28c-8.333-4.454-16.999-4.741-23.154-1.509
		c-6.155,3.233-13.052,10.848-15.494,12.141v1.293c0,0,7.426-2.442,15.494,2.299c0,0,9.218,4.597,22.292,0
		c13.074-4.597,12.643-4.454,14.942-4.167L260.925,285.917z"/>
	<path class="st10" d="M226.188,275.171c-1.815,2.245-2.906,5.118-2.906,8.25c0,3.819,1.63,7.244,4.21,9.622
		c3.722,0.929,10.167,1.668,18.099-0.951c2.032-2.302,3.278-5.335,3.278-8.671c0-1.974-0.445-3.838-1.22-5.514
		c-0.168-0.091-0.329-0.18-0.499-0.271C239.764,273.688,232.118,273.02,226.188,275.171z"/>
	<circle class="st12" cx="236.878" cy="284.605" r="2.514"/>
	<path class="st10" d="M367.953,276.127c-3.146,0-5.853,1.11-7.941,1.824c-1.009,1.947-1.075,3.637-1.075,5.981
		c0,3.704,1.435,7.065,3.765,9.587c2.045,0.575,4.238,1.115,6.572,1.573c4.552,0.894,8.766,0.714,12.411,0.063
		c3.373-2.586,5.557-6.645,5.557-11.223c0-2.262-0.16-3.968-1.104-5.864c-0.038-0.006-1.025-0.33-1.051-0.324
		C384.01,277.959,379.375,276.127,367.953,276.127z"/>
	<path class="st17" d="M383.642,285.466c-1.155,3.753-5.638,6.823-11.376,6.823s-10.391-3.757-10.391-7.685
		s5.233-6.537,10.973-6.537C378.585,278.068,385.034,280.943,383.642,285.466z"/>
	<ellipse class="st23" cx="373.44" cy="284.605" rx="8.046" ry="5.862"/>
	<circle cx="373.089" cy="284.605" r="5.862"/>
	<path class="st17" d="M248.385,284.22c-1.155,3.753-5.638,6.823-11.376,6.823c-5.739,0-10.391-3.758-10.391-7.685
		c0-3.927,5.234-6.536,10.973-6.536C243.329,276.822,249.778,279.696,248.385,284.22z"/>
	<ellipse class="st23" cx="238.184" cy="283.358" rx="8.046" ry="5.863"/>
	<circle cx="237.833" cy="283.358" r="5.862"/>
</g>
<g id="nose_x5F_and_x5F_mouth">
	<path class="st16" d="M225.23,276.525c0,0-1.426,6.921,0.082,9.728c1.509,2.806,2.654,4.202,6.501,5.756
		c3.847,1.554-2.67,2.218-7.171-1.982C220.14,285.826,222.86,277.818,225.23,276.525z"/>
	<path d="M282.208,278.067c0,0,1.078-12.069-10.345-16.379c0,0,3.664,2.586,5.172,5.603c0,0-8.836-7.974-24.892-9.375
		c0,0,7.117,1.939,11.317,4.525c0,0-17.451-3.017-23.65-6.357c-6.2-3.34-12.005-5.603-17.562-5.711c0,0,6.081,1.724,8.667,4.633
		c0,0-14.439-3.987-24.353-1.401c0,0,4.203-0.539,6.035,0.108c1.832,0.646,1.832,0.646,1.832,0.646s-8.621-1.616-19.611,4.526
		c0,0-5.604,4.095-10.991,4.418s1.186,0.97,8.944,0s13.9,0.97,19.18,2.694c0,0-3.448-2.694-3.987-3.771
		c-0.539-1.078,8.728,1.939,10.668,3.879c0,0,0-2.371-0.539-2.91c-0.539-0.539,9.948,0.539,14.888,2.479l-2.271-2.271
		c0,0,13.353,1.733,17.448,3.78s12.823,6.142,21.335,7.219C278.005,275.481,280.807,276.882,282.208,278.067z"/>
	<path d="M327.034,275.696c0,0,3.232-5.926,11.853-11.476c0,0-2.586,2.992-3.879,4.755s12.499-8.365,21.767-9.443
		c0,0-4.741,1.939-6.681,3.664c-1.94,1.724,6.249-4.741,16.163-5.172c9.913-0.431,17.456-4.31,21.335-5.603
		c3.88-1.293-7.542,4.741-7.542,4.741s12.931-4.526,22.197-2.802c0,0-6.824,1.725-8.261,2.299
		c-1.438,0.574,11.063-0.288,17.24,2.298c6.179,2.586,8.334,7.966,12.069,10.018c0,0-8.334-2.546-12.5-2.116
		c0,0,1.293-0.574,3.448,1.438c0,0-19.827-2.012-25.861-1.438c0,0,1.149-1.005,2.73-1.437c1.58-0.431-4.741-0.575-15.086,2.73
		c0,0-0.144-1.006,1.293-1.724c1.436-0.718-8.908,2.012-13.219,3.592c0,0,0.144-2.155,1.293-2.299
		c1.15-0.144-10.775,4.023-21.407,7.04c-10.632,3.018-11.639,4.822-13.506,4.351"/>
	<path class="st16" d="M386.189,278.176c0,0,2.624,8.552-1.686,12.807c-4.311,4.255-10.884,4.83-15.518,4.025
		c-4.633-0.805,13.039,2.07,15.151-0.446C384.138,294.562,391.174,284.005,386.189,278.176z"/>
	<path class="st16" d="M359.912,281.381c-0.282,1.369-0.552,0.929-0.003,4.318c0.528,3.263,1.186,5.304,3.664,6.997
		c2.478,1.693,9.532,2.314,12.956,2.774c3.66,0.491-2.838,0.62-11.663-0.92c-1.667-0.291-4.034-1.016-5.627-5.892
		c-1.593-4.877-1.946-7.899-0.095-9.916c0.957-1.041,2.566-1.383,2.566-1.383L359.912,281.381z"/>
	<g>
		<path class="st1" d="M351.216,290c4.166,2.389,11.96,5.049,17.404,5.668c1.146,0.129,2.258,0.229,3.32,0.303
			c0.002,0,0.002,0,0.004,0c1.119,0.368,6.156,0.147,6.188,0.146c1.079-0.039,1.934-0.118,2.481-0.226
			c0.172-0.034,0.268-0.065,0.302-0.097c8.104-1.26,14.271-4.994,14.271-4.994c-5.739,2.301-12.491,4.225-19.037,4.551
			c-1.579-0.059-3.393-0.105-5.199-0.139c-5.658-0.106-10.362-1.363-15.647-4.045c-3.219-1.634-6.136-2.586-8.901-3.363
			C348.138,288.341,349.141,288.812,351.216,290z"/>
	</g>
	<g>
		<path class="st1" d="M354.042,295.917c5.33,2.117,14.995,3.941,21.537,3.749c1.377-0.041,2.708-0.113,3.977-0.205
			c0.002,0,0.002,0,0.005,0c1.386,0.245,7.304-0.871,7.342-0.878c1.27-0.229,2.265-0.467,2.895-0.687
			c0.198-0.069,0.306-0.123,0.341-0.167c9.366-2.864,16.025-8.324,16.025-8.324c-6.395,3.694-14.052,7.114-21.735,8.61
			c-1.876,0.198-4.027,0.451-6.171,0.717c-6.707,0.834-12.48,0.146-19.185-2.129c-4.082-1.385-7.692-2.017-11.095-2.466
			C350.121,294.477,351.387,294.863,354.042,295.917z"/>
	</g>
	<g>
		<path class="st1" d="M254.514,293.457c-4.518,1.477-12.788,2.872-18.44,2.909c-1.189,0.007-2.341-0.005-3.439-0.034
			c-0.001,0-0.001,0-0.003,0c-1.187,0.189-6.336-0.375-6.369-0.379c-1.104-0.114-1.973-0.241-2.525-0.366
			c-0.173-0.04-0.268-0.071-0.3-0.098c-8.192-1.593-14.147-4.901-14.147-4.901c5.66,2.192,12.398,4.181,19.085,4.943
			c1.626,0.081,3.492,0.188,5.353,0.306c5.818,0.367,10.775-0.211,16.472-1.821c3.469-0.98,6.56-1.47,9.479-1.838
			C257.841,292.446,256.765,292.722,254.514,293.457z"/>
	</g>
	<path class="st1" d="M280.268,284.963c1.091,0.131-13.577-7.543-19.827-11.422c-6.25-3.879-18.318-5.172-28.663-4.31
		c-10.344,0.862-12.284,1.508-17.887,4.957c-5.604,3.448-7.328,8.621-14.224,13.146c-6.896,4.526,1.724,0.646,12.931-7.543
		c11.207-8.189,9.482-6.896,19.827-6.25c10.345,0.646,12.069-2.586,20.042,1.293C260.441,278.714,274.88,284.317,280.268,284.963z"
		/>
	<path class="st1" d="M334.1,287.294c-1.055,0.146,13.034-7.724,19.03-11.687c5.994-3.963,17.655-5.418,27.678-4.695
		c10.024,0.723,11.91,1.344,17.38,4.717c5.471,3.373,7.211,8.521,13.947,12.954c6.737,4.433-1.659,0.67-12.619-7.369
		c-10.958-8.038-9.271-6.769-19.272-5.983c-10.004,0.785-11.717-2.424-19.379,1.562C353.201,280.779,339.306,286.576,334.1,287.294z
		"/>
	<path class="st1" d="M269.263,291.783c0,0-10.673-4.193-19.543-1.216c-1.327,1.026-12.725,6.021-24.006,2.453
		c-10.154-3.212-12.851-4.757-15.388-3.938s1.269-3.587,13.045,1.253c11.777,4.84,13.016,0.822,31.607-2.144
		C254.979,288.192,265.531,287.716,269.263,291.783z"/>
	<path class="st25" d="M338.456,350.263c0,0-1.939,8.405,1.293,12.069s0.862,10.129-3.232,11.422c0,0,4.633-0.646,5.495-5.927
		c0,0,1.053-3.985-1.509-7.327C340.503,360.5,338.133,361.577,338.456,350.263z"/>
	<path class="st25" d="M327.249,380.974c0,0-4.095,3.018-8.189,8.082s-6.573,7.65-16.917,5.711c0,0-4.31-2.373-7.65-6.574
		s-10.237-9.267-17.457-9.374c0,0-5.28-0.431-2.909,1.293c2.371,1.725,9.037,1.51,11.96,2.263c0,0,5.496,3.448,7.866,6.466
		c2.371,3.017,5.064,7.543,12.931,7.327c7.866-0.216,11.099-3.987,14.87-8.189S323.586,384.422,327.249,380.974z"/>
	<path class="st25" d="M274.557,351.556c0.313-0.08-4.849,2.371-5.496,7.004c-0.646,4.634-1.939,10.991,1.293,17.025
		c3.232,6.034-3.771-0.323-3.125-11.314C267.229,364.271,266.583,353.604,274.557,351.556z"/>
	<path class="st25" d="M342.981,345.738c-5.859-10.986,1.293,8.836,12.715,20.905c11.423,12.068,15.732,16.81,16.595,25.43
		s1.509,9.052,0,18.318c-1.509,9.268,3.438-10.56,3.012-20.042c-0.426-9.482-2.063-12.725-12.925-20.474
		C351.516,362.126,344.706,348.97,342.981,345.738z"/>
	<path class="st25" d="M266.047,348.539c-4.385,8.549-13.392,22.893-13.795,23.491c-3.709,5.505-7.048,12.284-1.343,4.741
		s8.67-13.577,10.394-16.811C263.027,356.729,266.047,348.539,266.047,348.539z"/>
	<path class="st0" d="M350.74,407.637c0,0-2.766,2.503-11.854,7.112c0,0-9.698,7.71-28.447,7.926
		c-18.75,0.216-23.706-0.216-30.818,0c-7.112,0.216-20.223-4.31-26.274-7.327c0,0-5.405-2.802-7.776-1.078c0,0,0-1.293,5.818,2.155
		c5.819,3.448,7.637,6.537,16.903,16.235c9.267,9.698,13.614,9.698,29.778,10.345c0,0,8.49,1.221,18.619-1.149
		c10.129-2.371,16.092-3.412,25.143-20.043C349.998,406.81,350.74,407.637,350.74,407.637z"/>
	<path class="st25" d="M352.608,407.948c15.338-6.136-8.047,7.472-12.645,17.816c-4.597,10.345-7.184,13.217-17.815,16.953
		c-10.632,3.735-22.701,0.288-27.585,1.437c-4.884,1.149-9.481,3.16-19.252-4.885c-9.77-8.046-27.298-23.563-30.171-24.425
		c-2.874-0.861,7.601-2.011,19.461,10.058s9.561,13.505,18.756,14.942c9.195,1.437,11.207,0.287,24.712,0.574
		c13.506,0.287,20.708-2.281,25.574-6.896C338.51,428.908,342.552,411.972,352.608,407.948z"/>
	<path class="st27" d="M361.516,400.705"/>
	<path class="st15" d="M354.89,405.281c0.944-0.594,4.901,2.093-17.08,9.563c-21.982,7.472-14.153,8.047-36.602,7.472
		c-22.448-0.575-27.621-5.748-44.287-8.047c0,0-8.052-2.084-13.688-1.473c0,0,17.711,5.928,32.725,9.686
		c0,0,16.594,2.348,33.189,1.701c0,0,17.409-3.184,26.938-6.896C336.085,417.287,349.734,408.522,354.89,405.281z"/>
	<path class="st24" d="M354.261,406.009c-3.664,3.233,0.557-1.007-10.928,8.225c-11.485,9.232-6.744,6.861-21.184,12.681
		c-23.797,9.59-20.042,6.249-37.499,2.154s-28.232-10.56-33.62-12.715s-6.034-3.448,30.171,10.345c0,0,7.543,5.172,25.431,1.293
		c0,0,12.931-0.862,21.335-4.525C336.373,419.802,354.261,406.009,354.261,406.009z"/>
	<circle class="st19" cx="378.338" cy="285.586" r="1.809"/>
	<circle class="st19" cx="367.871" cy="283.128" r="0.901"/>
	<circle class="st19" cx="243.082" cy="284.34" r="1.808"/>
	<circle class="st19" cx="232.615" cy="281.881" r="0.901"/>
</g>
<g id="hair">
	<g>
		<path class="st29" d="M454.041,180.656c0,0-3.16-10.345-7.184-17.241c-4.022-6.896-12.355-26.436-25.861-34.769
			c-13.505-8.333-42.813-35.056-83.905-36.206c-41.091-1.15-26.436-6.609-64.079,4.022c-37.642,10.632-48.274,9.195-64.366,27.585
			s-23.563,22.988-30.459,39.654c-6.896,16.667-9.195,19.252-12.356,24.425s-8.333,6.896-10.345,5.459
			c-2.011-1.437-2.298-6.321-4.022,0.288s-2.012,11.207-2.586,23.275c-0.574,12.069-0.862,18.391,0,25
			c0.862,6.609-3.674,1.725-0.544,12.356c3.13,10.632,3.417,8.62,4.567,15.804c1.149,7.184,2.586,12.644,4.31,21.551
			c0.296,1.531,0.61,2.794,0.926,3.844h-0.001l4.458,26.974l1.298,18.318c0,0,0,7.759,4.957,28.232
			c4.957,20.474,14.87,39.007,14.87,39.007c20.689,41.163,38.595,51.091,38.595,51.091c32.773,28.029,33.049,27.411,41.36,32.527
			c18.75,12.284,46.753,10.772,46.753,10.772c30.172-1.724,40.773-21.147,40.773-21.147c9.698-14.009,17-22.162,17-22.162
			c7.925-5.878,14.658-11.319,14.658-11.319c15.078-16.917,30.164-40.623,42.232-74.674c12.069-34.051,14.655-61.206,15.302-64.223
			s3.879-20.114,3.879-20.114h-0.978c1.373-8.543,5.504-33.873,7.874-44.54c2.873-12.931,7.472-25.286,7.472-29.884
			S461.512,190.139,454.041,180.656z M249.742,158.784c-0.434,0.385-0.87,0.758-1.307,1.125c-0.259,0.08-0.514,0.157-0.768,0.233
			C248.984,159.3,249.742,158.784,249.742,158.784z M274.512,150.658c4.877-2.81,8.116-5.021,8.116-5.021
			c-3.886,3.454-7.953,6.167-11.516,8.21C272.292,152.767,273.426,151.7,274.512,150.658z M366.804,436.971
			c-0.6,2.095-0.819,3.178-0.84,3.681c-1.006,0.622-2.123,1.307-3.371,2.066c-9.913,6.034-2.155,2.802-3.232,4.956
			c-1.077,2.155-4.525,7.543-4.957,8.405c-0.431,0.862-1.939,1.293-1.939,1.293s0,0-0.646,0s-0.431,1.509-1.939,6.034
			c-1.509,4.526-4.095,5.604-6.034,5.819c-1.939,0.215,0,0-5.173,5.388c-5.172,5.388-3.232,2.155-7.758-0.862
			c-4.526-3.017-1.078,0.431-2.155,2.371c-1.077,1.939-4.741,7.542-6.681,2.37s-2.371,0-4.095,1.078
			c-1.725,1.077-1.078,4.74-4.526,0.431c-3.447-4.311-1.724-1.078-1.724,3.232s-1.939,3.879-6.896-1.724
			c-4.957-5.604-1.939-0.862-2.371,0.431s-1.293,4.311-3.232,2.586c-1.94-1.724-3.017-2.586-3.017-3.663
			c0-1.078,0,1.077-1.078,5.779c-1.078,4.701-0.862,1.116-1.94-4.918c-1.077-6.034-0.646-1.077-9.482,3.018
			s-1.724,0.646-10.129-1.725c-8.405-2.37-4.957-2.586-9.267-3.232c-4.31-0.646-2.371-1.509-11.422-6.25s-6.465-3.448-10.56-7.327
			s-2.586-5.604-7.112-12.931s-0.431-2.802-2.155-4.957c-1.724-2.154-3.879-3.447-3.879-4.741c0-1.293,2.586-5.388,2.155-7.542
			c-0.431-2.155,0-2.587,3.017-6.25c3.018-3.664,0.216-1.293,1.712-4.311c1.497-3.018,1.089,0.216,4.538-2.802
			c3.448-3.017,0,0,1.509-1.724c1.508-1.725,0.862-1.509,0-5.604c-0.862-4.095,0,0,1.078-3.879c1.077-3.88,1.508-0.432,3.879-1.509
			c2.371-1.078,3.017,0.862,9.052,1.077c6.034,0.216,3.448,0.862,5.512,0.862c2.064,0,2.461,0.431,7.418-1.509
			c4.957-1.939,1.724-0.215,5.819-2.155c4.095-1.939,2.802,0.432,5.172,0.432s2.371,0,6.25-1.078c3.879-1.077,4.31-0.861,4.31-0.861
			s3.017,1.077,7.328,1.724c4.31,0.646,2.586-0.646,4.31-2.802c1.724-2.155,3.017,2.155,4.311,1.939
			c1.293-0.215,1.724-0.861,3.663-0.646c1.939,0.216,1.725,0.216,3.232-0.431c1.509-0.646,3.664,0.862,3.664,0.862
			s2.371-0.432,5.172-2.802c2.802-2.371,1.94-1.293,3.448-2.586c1.509-1.294,4.741,0,6.25-1.509s0.646-3.448,0.646-3.448
			s3.018,3.879,5.173,3.232c2.154-0.646,0,0,0.646-2.586s1.077-0.431,4.31-0.216c3.233,0.216,1.509-0.215,4.957,1.078
			s0,0,1.077-0.216c1.078-0.216,2.587,2.37,3.664,2.37c1.078,0,1.509,0.216,1.509,0.216s1.724,4.957,1.939,5.604
			s0,1.724,0.862,4.525c0.861,2.802,0.431,1.293,0.431,1.293s0.431,1.078,3.879,4.526c2.369,2.368,2.603,2.398,3.005,2.254
			c0.283,0.607,0.574,1.286,0.875,2.056c4.597,11.781,0,0,3.735,9.195C372.435,439.558,368.699,430.361,366.804,436.971z
			 M443.983,268.154c-0.143,8.046-2.155,20.833-2.155,20.833l-4.021,25.501l-3.664,15.517l-0.211,1.258l-3.237,19.216l-2.155,4.31
			l-6.681,18.965v-1.939l-9.267,18.965v-2.586l-9.268,16.379v-3.448l-10.129,16.163l-2.586-0.216l-8.836,11.854
			c0,0-2.802,0.431-5.172,3.448c-1.392,1.771-2.573,2.954-5.307,4.844c0.022-0.268,0.056-0.539,0.112-0.82
			c0.696-3.448,0.453-3.735,0.331-6.896c-0.064-1.696,0.057-1.983,0.096-2.021c-0.025,0.002-0.097-0.033-0.261-0.278
			c-0.574-0.862,0.574-1.149,0-5.46c0,0,1.724-5.172,1.516-7.747c-0.145-1.793-1.307-2.839-2.244-4.715
			c0.346-1.397,0.937-3.688,1.23-4.276c0.432-0.862,0-5.818,0-5.818l-1.5-2.155l-2.595-4.741l-1.077,2.802l-3.448-4.526
			l-3.448-1.077l-6.034-4.311l-2.155,0.862l-5.818-2.802v1.725l-4.311-2.155c0,0,1.724,1.077-1.077,1.509
			c-2.802,0.431-1.078-0.216-4.741-1.509c-3.664-1.293-4.311,0-9.268-0.432c-4.957-0.431-1.724-1.939-6.25,6.25
			c-4.525,8.189-10.129,7.327-17.153,6.681c-7.024-0.646-2.027-1.077-6.122-3.663s-3.448-1.509-6.681-4.526
			c-3.233-3.017-3.664-0.431-7.112,1.509s-4.526,1.725-15.732,5.388c-11.207,3.664-2.586,0.432-7.974,1.939
			c-5.388,1.509-4.31,1.725-6.25,1.725c-1.94,0-3.664,0.646-6.25,0.646s-3.448,0.216-4.741-0.216
			c-1.293-0.431-4.957,1.078-6.262,1.078c-1.305,0-1.065,0.861-5.376,0c-4.31-0.862-1.724,2.586-1.274,1.939
			s-0.88,3.017-1.958,3.879s-1.94,3.879-0.431,1.509c1.509-2.371-0.215,4.741-0.215,4.741s-0.354,1.768-0.616,2.872
			c0.324,0.685,0.888,3.809,1.693,3.809c0,0,1.724,10.775,1.509,11.854c-0.215,1.077-1.293,5.172-3.879,7.543
			c-2.586,2.37-3.448-1.078-6.681-6.25c-3.232-5.173-3.879,0-3.879,0s0,0-3.233-3.232c-3.232-3.233-5.388-3.018-2.821-5.604
			c2.566-2.586-1.705-1.078-2.783-4.957c-1.077-3.879-0.646,1.509-1.724-2.802c-0.081-0.323-0.148-0.576-0.207-0.784
			c0.108-0.096,0.207-0.689,0.207-2.448c0-5.819-0.647,1.939-2.045-5.388c-0.055-0.286-0.105-0.495-0.151-0.652
			c0.013-0.137,0.027-0.272,0.042-0.426c0.646-6.896-1.724,5.389-2.802,2.802c-1.078-2.586-1.293-8.189-1.293-8.189v6.896
			c0,0-1.724-8.62-1.724-9.267s-1.078,6.034-1.078,6.034l-1.724-6.25l-2.586,2.371v-6.681l-2.371,3.663v-2.802l-2.371-2.586
			l-0.537-2.471l-0.541-2.486l-1.509,1.509l-1.939-5.388l-1.078,1.077v-6.034l-1.508,3.664v-5.604c0,0-0.646,2.802-0.862,0
			c-0.215-2.802-1.508-2.155-2.371-4.741c-0.862-2.586,0.862,2.586-3.664-7.974c-4.526-10.56-5.172-20.474-7.543-34.482
			s-2.155-23.491-2.155-23.491l-1.735-8.655c-0.034-0.565-0.067-1.164-0.099-1.801c-0.233-4.59-0.407-10.932-0.105-17.273
			c0.575-12.068,0.989-21.733,0.415-28.63c-0.574-6.896,4.758-20.506,5.907-26.541c1.149-6.035,1.724-1.724,1.149-11.781
			c-0.575-10.058-0.862-18.104,11.781-25.574c8.027-4.744,19.87-10.644,27.084-16.013c5.45-1.189,11.994-4.313,11.994-4.313
			c-2.841,2.756-5.99,3.316-5.99,3.316c7.417,0.402,16.175-7.188,20.41-11.369c0.269-0.023,0.529-0.047,0.811-0.069
			c0.067-0.006,0.13-0.013,0.196-0.019c-6.535,10.035-16.295,14.809-16.295,14.809c5.027-0.065,9.999-4.028,9.999-4.028
			c-5.647,6.216-21.533,8.804-21.533,8.804c11.236,1.785,28.889-7.679,37.727-13.004c0.456-0.035,0.917-0.078,1.383-0.136
			c-9.097,6.837-17.902,9.841-17.902,9.841c14.013-3.795,21.835-9.095,21.835-9.095c-3.602,3.72-11.69,7.528-11.69,7.528
			c6.274-1.353,16.744-8.782,16.744-8.782c-3.133,3.993-9.278,7.218-9.278,7.218c3.792-0.912,7.142-2.878,7.142-2.878
			c-6.646,5.26-16.125,8.74-16.125,8.74c9.604-0.665,21.851-9.458,31.857-18.265c9.203-3.305,14.235-6.706,14.235-6.706
			c-3.602,3.72-11.69,7.528-11.69,7.528c6.274-1.353,16.744-8.782,16.744-8.782c-3.133,3.993-9.278,7.217-9.278,7.217
			c3.792-0.912,7.142-2.878,7.142-2.878c-6.646,5.26-16.125,8.739-16.125,8.739c5.914-0.409,12.832-3.903,19.611-8.583
			c-1.83,3.211-3.37,5.314-3.37,5.314c7.979-4.04,16.317-12.034,19.11-14.833c0.123,0.007,0.244,0.014,0.366,0.021
			c-11.428,18.207-48.047,28.94-48.047,28.94c11.756,3.747,42.932-11.137,42.932-11.137c-7,6.791-14.76,8.17-14.76,8.17
			c15.654,0.85,33.739-12.756,45.163-23.15c1.447-0.162,2.955-0.358,4.51-0.594c-15.911,21.666-37.051,32.007-37.051,32.007
			c12.386-0.16,24.636-9.926,24.636-9.926c-13.912,15.316-53.054,21.693-53.054,21.693c38.143,6.059,106.329-40.507,106.329-40.507
			c-25.455,22.622-54.072,32.381-54.072,32.381c34.526-9.351,53.802-22.409,53.802-22.409c-8.876,9.167-28.806,18.548-28.806,18.548
			c15.461-3.333,41.258-21.638,41.258-21.638c-7.722,9.837-22.861,17.782-22.861,17.782c9.343-2.246,17.599-7.091,17.599-7.091
			c-16.375,12.959-39.729,21.534-39.729,21.534c33.627-2.328,60.389-22.762,73.578-35c7.158,6.388,12.481,8.934,14.888,17.137
			c3.161,10.776-1.723,17.385,4.886,34.482s9.05,22.844,9.194,33.763C445.564,249.333,444.127,260.108,443.983,268.154z"/>
		<path class="st29" d="M225.959,414.485c-0.092,0.92,0.052,0.462,0.247-0.36C226.096,413.894,226.014,413.94,225.959,414.485z"/>
		<path class="st29" d="M279.667,452.677c0.465,0.212,0.885,0.093,1.573-0.137c-1.583-0.716-2.768-0.914-2.768-0.914
			C278.975,452.2,279.333,452.523,279.667,452.677z"/>
		<path class="st29" d="M323.299,448.117c-6.035,0.515-7.185-0.515-9.482,0.061c-2.299,0.575-5.173-0.288-10.617,0
			c-5.444,0.288-4.039,0.862-7.487,1.724c-3.448,0.862-5.46,1.149-10.49,1.725c-2.025,0.231-3.185,0.647-3.982,0.914
			c1.211,0.547,2.656,1.396,3.982,2.694c1.326,1.296,1.502,1.869,1.276,2.104c0.835-0.178,1.987-0.697,3.18-2.104
			c2.299-2.714,2.586,0,2.586,0l6.896,4.437l2.298,3.735c0,0,1.437,0.288,1.74,0c0.303-0.288,6.306-3.16,6.306-3.16
			s2.586-1.724,3.16-2.874c0.574-1.149,3.161-2.298,3.161-2.298s0,0,1.437-2.287c1.438-2.286,1.437-1.449,3.448-1.161
			c2.013,0.288,1.725,1.149,3.161-1.765c1.436-2.914,1.149,0.327,7.184-1.864C337.091,445.805,329.333,447.603,323.299,448.117z"/>
		<path class="st29" d="M285.223,457.372c0,0,0.982,0.272,1.276-0.033C285.726,457.502,285.223,457.372,285.223,457.372z"/>
	</g>
</g>
</svg>
